<svg width="39" height="13" viewBox="0 0 39 13" fill="none" xmlns="http://www.w3.org/2000/svg">
<path d="M0.393003 9.91347V8.29366L5.16457 0.754695H6.51532V3.06086H5.69169L2.47953 8.1509V8.23875H9.13996V9.91347H0.393003ZM5.75758 12V9.41929L5.77955 8.6945V0.754695H7.70135V12H5.75758ZM13.687 10.6492C13.3538 10.6492 13.0683 10.5321 12.8304 10.2978C12.5924 10.0599 12.4753 9.77437 12.479 9.44125C12.4753 9.1118 12.5924 8.82994 12.8304 8.59566C13.0683 8.36138 13.3538 8.24424 13.687 8.24424C14.0091 8.24424 14.2891 8.36138 14.5271 8.59566C14.7687 8.82994 14.8913 9.1118 14.8949 9.44125C14.8913 9.66455 14.8327 9.86771 14.7192 10.0507C14.6094 10.2338 14.463 10.3802 14.28 10.49C14.1006 10.5962 13.9029 10.6492 13.687 10.6492ZM13.687 5.07601C13.3538 5.07601 13.0683 4.95887 12.8304 4.72459C12.5924 4.48666 12.4753 4.20113 12.479 3.86802C12.4753 3.53857 12.5924 3.2567 12.8304 3.02242C13.0683 2.78449 13.3538 2.66552 13.687 2.66552C14.0091 2.66552 14.2891 2.78449 14.5271 3.02242C14.7687 3.2567 14.8913 3.53857 14.8949 3.86802C14.8913 4.08765 14.8327 4.28899 14.7192 4.47201C14.6094 4.65504 14.463 4.80147 14.28 4.91128C14.1006 5.0211 13.9029 5.07601 13.687 5.07601ZM22.5072 12.1537C21.7165 12.1537 21.0137 12.0183 20.3987 11.7474C19.7874 11.4765 19.3042 11.0995 18.9491 10.6163C18.5941 10.1331 18.4055 9.57486 18.3836 8.94158H20.4481C20.4664 9.24541 20.5671 9.5108 20.7501 9.73776C20.9332 9.96106 21.1766 10.1349 21.4804 10.2594C21.7842 10.3839 22.1247 10.4461 22.5017 10.4461C22.9044 10.4461 23.2613 10.3765 23.5724 10.2374C23.8836 10.0947 24.127 9.897 24.3027 9.64442C24.4784 9.39184 24.5645 9.10082 24.5608 8.77137C24.5645 8.43093 24.4766 8.13077 24.2972 7.87086C24.1179 7.61096 23.858 7.4078 23.5175 7.26138C23.1808 7.11495 22.7744 7.04174 22.2986 7.04174H21.3047V5.47135H22.2986C22.6902 5.47135 23.0325 5.40363 23.3254 5.26819C23.6219 5.13275 23.8543 4.9424 24.0227 4.69714C24.1911 4.44822 24.2734 4.16087 24.2698 3.83507C24.2734 3.5166 24.2021 3.24023 24.0556 3.00595C23.9129 2.76801 23.7097 2.58315 23.4462 2.45137C23.1863 2.31959 22.8806 2.2537 22.5292 2.2537C22.1851 2.2537 21.8666 2.31593 21.5738 2.44039C21.2809 2.56485 21.0448 2.74239 20.8654 2.97301C20.6861 3.19996 20.5909 3.47085 20.5799 3.78566H18.6197C18.6343 3.15604 18.8155 2.60329 19.1633 2.12741C19.5147 1.64788 19.9832 1.2745 20.5689 1.00727C21.1546 0.736392 21.8117 0.60095 22.5402 0.60095C23.2906 0.60095 23.9422 0.741882 24.4949 1.02375C25.0513 1.30195 25.4814 1.67716 25.7853 2.14938C26.0891 2.62159 26.241 3.14322 26.241 3.71427C26.2447 4.34755 26.058 4.87834 25.6809 5.30663C25.3076 5.73492 24.817 6.01495 24.2094 6.14673V6.23458C25.0001 6.3444 25.6059 6.63725 26.0269 7.11312C26.4515 7.58534 26.662 8.17286 26.6583 8.87569C26.6583 9.50531 26.4789 10.069 26.1202 10.5669C25.7651 11.0611 25.2746 11.4491 24.6487 11.7309C24.0264 12.0128 23.3125 12.1537 22.5072 12.1537ZM34.2459 12.2141C33.3417 12.2141 32.5657 11.9854 31.9177 11.5278C31.2735 11.0666 30.7775 10.4022 30.4297 9.5346C30.0856 8.66338 29.9136 7.61462 29.9136 6.38833C29.9172 5.16203 30.0911 4.11877 30.4352 3.25853C30.783 2.39463 31.279 1.73573 31.9232 1.28182C32.5712 0.827906 33.3454 0.60095 34.2459 0.60095C35.1464 0.60095 35.9206 0.827906 36.5685 1.28182C37.2164 1.73573 37.7124 2.39463 38.0565 3.25853C38.4043 4.12243 38.5782 5.16569 38.5782 6.38833C38.5782 7.61828 38.4043 8.66887 38.0565 9.54009C37.7124 10.4076 37.2164 11.0702 36.5685 11.5278C35.9242 11.9854 35.15 12.2141 34.2459 12.2141ZM34.2459 10.4955C34.9487 10.4955 35.5033 10.1496 35.9096 9.45773C36.3196 8.76222 36.5246 7.73908 36.5246 6.38833C36.5246 5.49515 36.4312 4.74473 36.2445 4.13707C36.0579 3.52941 35.7943 3.07184 35.4539 2.76435C35.1134 2.4532 34.7108 2.29763 34.2459 2.29763C33.5467 2.29763 32.994 2.64538 32.5876 3.34089C32.1813 4.03274 31.9763 5.04856 31.9727 6.38833C31.969 7.28517 32.0587 8.03925 32.2417 8.65057C32.4284 9.26189 32.692 9.72312 33.0324 10.0343C33.3728 10.3418 33.7773 10.4955 34.2459 10.4955Z" fill="black"/>
</svg>
