<svg width="22" height="24" viewBox="0 0 22 24" fill="none" xmlns="http://www.w3.org/2000/svg">
<path d="M11 1C13.5013 3.88247 14.9228 7.62319 15 11.5263C14.9228 15.4295 13.5013 19.1701 11 22.0526M11 1C8.49875 3.88247 7.07728 7.62319 7.00003 11.5263C7.07728 15.4295 8.49875 19.1701 11 22.0526M11 1C5.47718 1 1.00003 5.71279 1.00003 11.5263C1.00003 17.3398 5.47718 22.0526 11 22.0526M11 1C16.5228 1 21 5.71279 21 11.5263C21 17.3398 16.5228 22.0526 11 22.0526M1.50005 8.36842H20.5M1.50003 14.6842H20.5" stroke="#0A2472" stroke-width="2" stroke-linecap="round" stroke-linejoin="round"/>
</svg>
