<svg width="24" height="24" viewBox="0 0 24 24" fill="none" xmlns="http://www.w3.org/2000/svg">
<path d="M21 10H3.00003M16 2V6M8.00003 2V6M10.5 14L12 13V18M10.75 18H13.25M7.80003 22H16.2C17.8802 22 18.7202 22 19.362 21.673C19.9265 21.3854 20.3854 20.9265 20.673 20.362C21 19.7202 21 18.8802 21 17.2V8.8C21 7.11984 21 6.27976 20.673 5.63803C20.3854 5.07354 19.9265 4.6146 19.362 4.32698C18.7202 4 17.8802 4 16.2 4H7.80003C6.11987 4 5.27979 4 4.63806 4.32698C4.07357 4.6146 3.61463 5.07354 3.32701 5.63803C3.00003 6.27976 3.00003 7.11984 3.00003 8.8V17.2C3.00003 18.8802 3.00003 19.7202 3.32701 20.362C3.61463 20.9265 4.07357 21.3854 4.63806 21.673C5.27979 22 6.11987 22 7.80003 22Z" stroke="#0A2472" stroke-width="2" stroke-linecap="round" stroke-linejoin="round"/>
</svg>
