<svg width="328" height="52" viewBox="0 0 328 52" fill="none" xmlns="http://www.w3.org/2000/svg">
<path d="M75.4355 14.4688V23H74.3047V14.4688H75.4355ZM78.9453 23H77.8613V15.9922C77.8613 15.5352 77.9434 15.1504 78.1074 14.8379C78.2754 14.5215 78.5156 14.2832 78.8281 14.123C79.1406 13.959 79.5117 13.877 79.9414 13.877C80.0664 13.877 80.1914 13.8848 80.3164 13.9004C80.4453 13.916 80.5703 13.9395 80.6914 13.9707L80.6328 14.8555C80.5508 14.8359 80.457 14.8223 80.3516 14.8145C80.25 14.8066 80.1484 14.8027 80.0469 14.8027C79.8164 14.8027 79.6172 14.8496 79.4492 14.9434C79.2852 15.0332 79.1602 15.166 79.0742 15.3418C78.9883 15.5176 78.9453 15.7344 78.9453 15.9922V23ZM80.293 16.6602V17.4922H76.8594V16.6602H80.293ZM86.2578 22.3438L88.0215 16.6602H89.1816L86.6387 23.9785C86.5801 24.1348 86.502 24.3027 86.4043 24.4824C86.3105 24.666 86.1895 24.8398 86.041 25.0039C85.8926 25.168 85.7129 25.3008 85.502 25.4023C85.2949 25.5078 85.0469 25.5605 84.7578 25.5605C84.6719 25.5605 84.5625 25.5488 84.4297 25.5254C84.2969 25.502 84.2031 25.4824 84.1484 25.4668L84.1426 24.5879C84.1738 24.5918 84.2227 24.5957 84.2891 24.5996C84.3594 24.6074 84.4082 24.6113 84.4355 24.6113C84.6816 24.6113 84.8906 24.5781 85.0625 24.5117C85.2344 24.4492 85.3789 24.3418 85.4961 24.1895C85.6172 24.041 85.7207 23.8359 85.8066 23.5742L86.2578 22.3438ZM84.9629 16.6602L86.6094 21.582L86.8906 22.7246L86.1113 23.123L83.7793 16.6602H84.9629ZM89.7793 19.9004V19.7656C89.7793 19.3086 89.8457 18.8848 89.9785 18.4941C90.1113 18.0996 90.3027 17.7578 90.5527 17.4688C90.8027 17.1758 91.1055 16.9492 91.4609 16.7891C91.8164 16.625 92.2148 16.543 92.6562 16.543C93.1016 16.543 93.502 16.625 93.8574 16.7891C94.2168 16.9492 94.5215 17.1758 94.7715 17.4688C95.0254 17.7578 95.2188 18.0996 95.3516 18.4941C95.4844 18.8848 95.5508 19.3086 95.5508 19.7656V19.9004C95.5508 20.3574 95.4844 20.7812 95.3516 21.1719C95.2188 21.5625 95.0254 21.9043 94.7715 22.1973C94.5215 22.4863 94.2188 22.7129 93.8633 22.877C93.5117 23.0371 93.1133 23.1172 92.668 23.1172C92.2227 23.1172 91.8223 23.0371 91.4668 22.877C91.1113 22.7129 90.8066 22.4863 90.5527 22.1973C90.3027 21.9043 90.1113 21.5625 89.9785 21.1719C89.8457 20.7812 89.7793 20.3574 89.7793 19.9004ZM90.8633 19.7656V19.9004C90.8633 20.2168 90.9004 20.5156 90.9746 20.7969C91.0488 21.0742 91.1602 21.3203 91.3086 21.5352C91.4609 21.75 91.6504 21.9199 91.877 22.0449C92.1035 22.166 92.3672 22.2266 92.668 22.2266C92.9648 22.2266 93.2246 22.166 93.4473 22.0449C93.6738 21.9199 93.8613 21.75 94.0098 21.5352C94.1582 21.3203 94.2695 21.0742 94.3438 20.7969C94.4219 20.5156 94.4609 20.2168 94.4609 19.9004V19.7656C94.4609 19.4531 94.4219 19.1582 94.3438 18.8809C94.2695 18.5996 94.1562 18.3516 94.0039 18.1367C93.8555 17.918 93.668 17.7461 93.4414 17.6211C93.2188 17.4961 92.957 17.4336 92.6562 17.4336C92.3594 17.4336 92.0977 17.4961 91.8711 17.6211C91.6484 17.7461 91.4609 17.918 91.3086 18.1367C91.1602 18.3516 91.0488 18.5996 90.9746 18.8809C90.9004 19.1582 90.8633 19.4531 90.8633 19.7656ZM100.789 21.5352V16.6602H101.879V23H100.842L100.789 21.5352ZM100.994 20.1992L101.445 20.1875C101.445 20.6094 101.4 21 101.311 21.3594C101.225 21.7148 101.084 22.0234 100.889 22.2852C100.693 22.5469 100.438 22.752 100.121 22.9004C99.8047 23.0449 99.4199 23.1172 98.9668 23.1172C98.6582 23.1172 98.375 23.0723 98.1172 22.9824C97.8633 22.8926 97.6445 22.7539 97.4609 22.5664C97.2773 22.3789 97.1348 22.1348 97.0332 21.834C96.9355 21.5332 96.8867 21.1719 96.8867 20.75V16.6602H97.9707V20.7617C97.9707 21.0469 98.002 21.2832 98.0645 21.4707C98.1309 21.6543 98.2188 21.8008 98.3281 21.9102C98.4414 22.0156 98.5664 22.0898 98.7031 22.1328C98.8438 22.1758 98.9883 22.1973 99.1367 22.1973C99.5977 22.1973 99.9629 22.1094 100.232 21.9336C100.502 21.7539 100.695 21.5137 100.812 21.2129C100.934 20.9082 100.994 20.5703 100.994 20.1992ZM110.246 21.916V18.6523C110.246 18.4023 110.195 18.1855 110.094 18.002C109.996 17.8145 109.848 17.6699 109.648 17.5684C109.449 17.4668 109.203 17.416 108.91 17.416C108.637 17.416 108.396 17.4629 108.189 17.5566C107.986 17.6504 107.826 17.7734 107.709 17.9258C107.596 18.0781 107.539 18.2422 107.539 18.418H106.455C106.455 18.1914 106.514 17.9668 106.631 17.7441C106.748 17.5215 106.916 17.3203 107.135 17.1406C107.357 16.957 107.623 16.8125 107.932 16.707C108.244 16.5977 108.592 16.543 108.975 16.543C109.436 16.543 109.842 16.6211 110.193 16.7773C110.549 16.9336 110.826 17.1699 111.025 17.4863C111.229 17.7988 111.33 18.1914 111.33 18.6641V21.6172C111.33 21.8281 111.348 22.0527 111.383 22.291C111.422 22.5293 111.479 22.7344 111.553 22.9062V23H110.422C110.367 22.875 110.324 22.709 110.293 22.502C110.262 22.291 110.246 22.0957 110.246 21.916ZM110.434 19.1562L110.445 19.918H109.35C109.041 19.918 108.766 19.9434 108.523 19.9941C108.281 20.041 108.078 20.1133 107.914 20.2109C107.75 20.3086 107.625 20.4316 107.539 20.5801C107.453 20.7246 107.41 20.8945 107.41 21.0898C107.41 21.2891 107.455 21.4707 107.545 21.6348C107.635 21.7988 107.77 21.9297 107.949 22.0273C108.133 22.1211 108.357 22.168 108.623 22.168C108.955 22.168 109.248 22.0977 109.502 21.957C109.756 21.8164 109.957 21.6445 110.105 21.4414C110.258 21.2383 110.34 21.041 110.352 20.8496L110.814 21.3711C110.787 21.5352 110.713 21.7168 110.592 21.916C110.471 22.1152 110.309 22.3066 110.105 22.4902C109.906 22.6699 109.668 22.8203 109.391 22.9414C109.117 23.0586 108.809 23.1172 108.465 23.1172C108.035 23.1172 107.658 23.0332 107.334 22.8652C107.014 22.6973 106.764 22.4727 106.584 22.1914C106.408 21.9062 106.32 21.5879 106.32 21.2363C106.32 20.8965 106.387 20.5977 106.52 20.3398C106.652 20.0781 106.844 19.8613 107.094 19.6895C107.344 19.5137 107.645 19.3809 107.996 19.291C108.348 19.2012 108.74 19.1562 109.174 19.1562H110.434ZM114.119 17.6562V23H113.035V16.6602H114.09L114.119 17.6562ZM116.1 16.625L116.094 17.6328C116.004 17.6133 115.918 17.6016 115.836 17.5977C115.758 17.5898 115.668 17.5859 115.566 17.5859C115.316 17.5859 115.096 17.625 114.904 17.7031C114.713 17.7812 114.551 17.8906 114.418 18.0312C114.285 18.1719 114.18 18.3398 114.102 18.5352C114.027 18.7266 113.979 18.9375 113.955 19.168L113.65 19.3438C113.65 18.9609 113.688 18.6016 113.762 18.2656C113.84 17.9297 113.959 17.6328 114.119 17.375C114.279 17.1133 114.482 16.9102 114.729 16.7656C114.979 16.6172 115.275 16.543 115.619 16.543C115.697 16.543 115.787 16.5527 115.889 16.5723C115.99 16.5879 116.061 16.6055 116.1 16.625ZM119.615 23.1172C119.174 23.1172 118.773 23.043 118.414 22.8945C118.059 22.7422 117.752 22.5293 117.494 22.2559C117.24 21.9824 117.045 21.6582 116.908 21.2832C116.771 20.9082 116.703 20.498 116.703 20.0527V19.8066C116.703 19.291 116.779 18.832 116.932 18.4297C117.084 18.0234 117.291 17.6797 117.553 17.3984C117.814 17.1172 118.111 16.9043 118.443 16.7598C118.775 16.6152 119.119 16.543 119.475 16.543C119.928 16.543 120.318 16.6211 120.646 16.7773C120.979 16.9336 121.25 17.1523 121.461 17.4336C121.672 17.7109 121.828 18.0391 121.93 18.418C122.031 18.793 122.082 19.2031 122.082 19.6484V20.1348H117.348V19.25H120.998V19.168C120.982 18.8867 120.924 18.6133 120.822 18.3477C120.725 18.082 120.568 17.8633 120.354 17.6914C120.139 17.5195 119.846 17.4336 119.475 17.4336C119.229 17.4336 119.002 17.4863 118.795 17.5918C118.588 17.6934 118.41 17.8457 118.262 18.0488C118.113 18.252 117.998 18.5 117.916 18.793C117.834 19.0859 117.793 19.4238 117.793 19.8066V20.0527C117.793 20.3535 117.834 20.6367 117.916 20.9023C118.002 21.1641 118.125 21.3945 118.285 21.5938C118.449 21.793 118.646 21.9492 118.877 22.0625C119.111 22.1758 119.377 22.2324 119.674 22.2324C120.057 22.2324 120.381 22.1543 120.646 21.998C120.912 21.8418 121.145 21.6328 121.344 21.3711L122 21.8926C121.863 22.0996 121.689 22.2969 121.479 22.4844C121.268 22.6719 121.008 22.8242 120.699 22.9414C120.395 23.0586 120.033 23.1172 119.615 23.1172ZM128.861 22.2266C129.119 22.2266 129.357 22.1738 129.576 22.0684C129.795 21.9629 129.975 21.8184 130.115 21.6348C130.256 21.4473 130.336 21.2344 130.355 20.9961H131.387C131.367 21.3711 131.24 21.7207 131.006 22.0449C130.775 22.3652 130.473 22.625 130.098 22.8242C129.723 23.0195 129.311 23.1172 128.861 23.1172C128.385 23.1172 127.969 23.0332 127.613 22.8652C127.262 22.6973 126.969 22.4668 126.734 22.1738C126.504 21.8809 126.33 21.5449 126.213 21.166C126.1 20.7832 126.043 20.3789 126.043 19.9531V19.707C126.043 19.2812 126.1 18.8789 126.213 18.5C126.33 18.1172 126.504 17.7793 126.734 17.4863C126.969 17.1934 127.262 16.9629 127.613 16.7949C127.969 16.627 128.385 16.543 128.861 16.543C129.357 16.543 129.791 16.6445 130.162 16.8477C130.533 17.0469 130.824 17.3203 131.035 17.668C131.25 18.0117 131.367 18.4023 131.387 18.8398H130.355C130.336 18.5781 130.262 18.3418 130.133 18.1309C130.008 17.9199 129.836 17.752 129.617 17.627C129.402 17.498 129.15 17.4336 128.861 17.4336C128.529 17.4336 128.25 17.5 128.023 17.6328C127.801 17.7617 127.623 17.9375 127.49 18.1602C127.361 18.3789 127.268 18.623 127.209 18.8926C127.154 19.1582 127.127 19.4297 127.127 19.707V19.9531C127.127 20.2305 127.154 20.5039 127.209 20.7734C127.264 21.043 127.355 21.2871 127.484 21.5059C127.617 21.7246 127.795 21.9004 128.018 22.0332C128.244 22.1621 128.525 22.2266 128.861 22.2266ZM133.689 17.6562V23H132.605V16.6602H133.66L133.689 17.6562ZM135.67 16.625L135.664 17.6328C135.574 17.6133 135.488 17.6016 135.406 17.5977C135.328 17.5898 135.238 17.5859 135.137 17.5859C134.887 17.5859 134.666 17.625 134.475 17.7031C134.283 17.7812 134.121 17.8906 133.988 18.0312C133.855 18.1719 133.75 18.3398 133.672 18.5352C133.598 18.7266 133.549 18.9375 133.525 19.168L133.221 19.3438C133.221 18.9609 133.258 18.6016 133.332 18.2656C133.41 17.9297 133.529 17.6328 133.689 17.375C133.85 17.1133 134.053 16.9102 134.299 16.7656C134.549 16.6172 134.846 16.543 135.189 16.543C135.268 16.543 135.357 16.5527 135.459 16.5723C135.561 16.5879 135.631 16.6055 135.67 16.625ZM139.186 23.1172C138.744 23.1172 138.344 23.043 137.984 22.8945C137.629 22.7422 137.322 22.5293 137.064 22.2559C136.811 21.9824 136.615 21.6582 136.479 21.2832C136.342 20.9082 136.273 20.498 136.273 20.0527V19.8066C136.273 19.291 136.35 18.832 136.502 18.4297C136.654 18.0234 136.861 17.6797 137.123 17.3984C137.385 17.1172 137.682 16.9043 138.014 16.7598C138.346 16.6152 138.689 16.543 139.045 16.543C139.498 16.543 139.889 16.6211 140.217 16.7773C140.549 16.9336 140.82 17.1523 141.031 17.4336C141.242 17.7109 141.398 18.0391 141.5 18.418C141.602 18.793 141.652 19.2031 141.652 19.6484V20.1348H136.918V19.25H140.568V19.168C140.553 18.8867 140.494 18.6133 140.393 18.3477C140.295 18.082 140.139 17.8633 139.924 17.6914C139.709 17.5195 139.416 17.4336 139.045 17.4336C138.799 17.4336 138.572 17.4863 138.365 17.5918C138.158 17.6934 137.98 17.8457 137.832 18.0488C137.684 18.252 137.568 18.5 137.486 18.793C137.404 19.0859 137.363 19.4238 137.363 19.8066V20.0527C137.363 20.3535 137.404 20.6367 137.486 20.9023C137.572 21.1641 137.695 21.3945 137.855 21.5938C138.02 21.793 138.217 21.9492 138.447 22.0625C138.682 22.1758 138.947 22.2324 139.244 22.2324C139.627 22.2324 139.951 22.1543 140.217 21.998C140.482 21.8418 140.715 21.6328 140.914 21.3711L141.57 21.8926C141.434 22.0996 141.26 22.2969 141.049 22.4844C140.838 22.6719 140.578 22.8242 140.27 22.9414C139.965 23.0586 139.604 23.1172 139.186 23.1172ZM146.656 21.916V18.6523C146.656 18.4023 146.605 18.1855 146.504 18.002C146.406 17.8145 146.258 17.6699 146.059 17.5684C145.859 17.4668 145.613 17.416 145.32 17.416C145.047 17.416 144.807 17.4629 144.6 17.5566C144.396 17.6504 144.236 17.7734 144.119 17.9258C144.006 18.0781 143.949 18.2422 143.949 18.418H142.865C142.865 18.1914 142.924 17.9668 143.041 17.7441C143.158 17.5215 143.326 17.3203 143.545 17.1406C143.768 16.957 144.033 16.8125 144.342 16.707C144.654 16.5977 145.002 16.543 145.385 16.543C145.846 16.543 146.252 16.6211 146.604 16.7773C146.959 16.9336 147.236 17.1699 147.436 17.4863C147.639 17.7988 147.74 18.1914 147.74 18.6641V21.6172C147.74 21.8281 147.758 22.0527 147.793 22.291C147.832 22.5293 147.889 22.7344 147.963 22.9062V23H146.832C146.777 22.875 146.734 22.709 146.703 22.502C146.672 22.291 146.656 22.0957 146.656 21.916ZM146.844 19.1562L146.855 19.918H145.76C145.451 19.918 145.176 19.9434 144.934 19.9941C144.691 20.041 144.488 20.1133 144.324 20.2109C144.16 20.3086 144.035 20.4316 143.949 20.5801C143.863 20.7246 143.82 20.8945 143.82 21.0898C143.82 21.2891 143.865 21.4707 143.955 21.6348C144.045 21.7988 144.18 21.9297 144.359 22.0273C144.543 22.1211 144.768 22.168 145.033 22.168C145.365 22.168 145.658 22.0977 145.912 21.957C146.166 21.8164 146.367 21.6445 146.516 21.4414C146.668 21.2383 146.75 21.041 146.762 20.8496L147.225 21.3711C147.197 21.5352 147.123 21.7168 147.002 21.916C146.881 22.1152 146.719 22.3066 146.516 22.4902C146.316 22.6699 146.078 22.8203 145.801 22.9414C145.527 23.0586 145.219 23.1172 144.875 23.1172C144.445 23.1172 144.068 23.0332 143.744 22.8652C143.424 22.6973 143.174 22.4727 142.994 22.1914C142.818 21.9062 142.73 21.5879 142.73 21.2363C142.73 20.8965 142.797 20.5977 142.93 20.3398C143.062 20.0781 143.254 19.8613 143.504 19.6895C143.754 19.5137 144.055 19.3809 144.406 19.291C144.758 19.2012 145.15 19.1562 145.584 19.1562H146.844ZM152.1 16.6602V17.4922H148.672V16.6602H152.1ZM149.832 15.1191H150.916V21.4297C150.916 21.6445 150.949 21.8066 151.016 21.916C151.082 22.0254 151.168 22.0977 151.273 22.1328C151.379 22.168 151.492 22.1855 151.613 22.1855C151.703 22.1855 151.797 22.1777 151.895 22.1621C151.996 22.1426 152.072 22.127 152.123 22.1152L152.129 23C152.043 23.0273 151.93 23.0527 151.789 23.0762C151.652 23.1035 151.486 23.1172 151.291 23.1172C151.025 23.1172 150.781 23.0645 150.559 22.959C150.336 22.8535 150.158 22.6777 150.025 22.4316C149.896 22.1816 149.832 21.8457 149.832 21.4238V15.1191ZM154.549 16.6602V23H153.459V16.6602H154.549ZM153.377 14.9785C153.377 14.8027 153.43 14.6543 153.535 14.5332C153.645 14.4121 153.805 14.3516 154.016 14.3516C154.223 14.3516 154.381 14.4121 154.49 14.5332C154.604 14.6543 154.66 14.8027 154.66 14.9785C154.66 15.1465 154.604 15.291 154.49 15.4121C154.381 15.5293 154.223 15.5879 154.016 15.5879C153.805 15.5879 153.645 15.5293 153.535 15.4121C153.43 15.291 153.377 15.1465 153.377 14.9785ZM157.373 18.0137V23H156.289V16.6602H157.314L157.373 18.0137ZM157.115 19.5898L156.664 19.5723C156.668 19.1387 156.732 18.7383 156.857 18.3711C156.982 18 157.158 17.6777 157.385 17.4043C157.611 17.1309 157.881 16.9199 158.193 16.7715C158.51 16.6191 158.859 16.543 159.242 16.543C159.555 16.543 159.836 16.5859 160.086 16.6719C160.336 16.7539 160.549 16.8867 160.725 17.0703C160.904 17.2539 161.041 17.4922 161.135 17.7852C161.229 18.0742 161.275 18.4277 161.275 18.8457V23H160.186V18.834C160.186 18.502 160.137 18.2363 160.039 18.0371C159.941 17.834 159.799 17.6875 159.611 17.5977C159.424 17.5039 159.193 17.457 158.92 17.457C158.65 17.457 158.404 17.5137 158.182 17.627C157.963 17.7402 157.773 17.8965 157.613 18.0957C157.457 18.2949 157.334 18.5234 157.244 18.7812C157.158 19.0352 157.115 19.3047 157.115 19.5898ZM167.029 16.6602H168.014V22.8652C168.014 23.4238 167.9 23.9004 167.674 24.2949C167.447 24.6895 167.131 24.9883 166.725 25.1914C166.322 25.3984 165.857 25.502 165.33 25.502C165.111 25.502 164.854 25.4668 164.557 25.3965C164.264 25.3301 163.975 25.2148 163.689 25.0508C163.408 24.8906 163.172 24.6738 162.98 24.4004L163.549 23.7559C163.814 24.0762 164.092 24.2988 164.381 24.4238C164.674 24.5488 164.963 24.6113 165.248 24.6113C165.592 24.6113 165.889 24.5469 166.139 24.418C166.389 24.2891 166.582 24.0977 166.719 23.8438C166.859 23.5938 166.93 23.2852 166.93 22.918V18.0547L167.029 16.6602ZM162.664 19.9004V19.7773C162.664 19.293 162.721 18.8535 162.834 18.459C162.951 18.0605 163.117 17.7188 163.332 17.4336C163.551 17.1484 163.814 16.9297 164.123 16.7773C164.432 16.6211 164.779 16.543 165.166 16.543C165.564 16.543 165.912 16.6133 166.209 16.7539C166.51 16.8906 166.764 17.0918 166.971 17.3574C167.182 17.6191 167.348 17.9355 167.469 18.3066C167.59 18.6777 167.674 19.0977 167.721 19.5664V20.1055C167.678 20.5703 167.594 20.9883 167.469 21.3594C167.348 21.7305 167.182 22.0469 166.971 22.3086C166.764 22.5703 166.51 22.7715 166.209 22.9121C165.908 23.0488 165.557 23.1172 165.154 23.1172C164.775 23.1172 164.432 23.0371 164.123 22.877C163.818 22.7168 163.557 22.4922 163.338 22.2031C163.119 21.9141 162.951 21.5742 162.834 21.1836C162.721 20.7891 162.664 20.3613 162.664 19.9004ZM163.748 19.7773V19.9004C163.748 20.2168 163.779 20.5137 163.842 20.791C163.908 21.0684 164.008 21.3125 164.141 21.5234C164.277 21.7344 164.451 21.9004 164.662 22.0215C164.873 22.1387 165.125 22.1973 165.418 22.1973C165.777 22.1973 166.074 22.1211 166.309 21.9688C166.543 21.8164 166.729 21.6152 166.865 21.3652C167.006 21.1152 167.115 20.8438 167.193 20.5508V19.1387C167.15 18.9238 167.084 18.7168 166.994 18.5176C166.908 18.3145 166.795 18.1348 166.654 17.9785C166.518 17.8184 166.348 17.6914 166.145 17.5977C165.941 17.5039 165.703 17.457 165.43 17.457C165.133 17.457 164.877 17.5195 164.662 17.6445C164.451 17.7656 164.277 17.9336 164.141 18.1484C164.008 18.3594 163.908 18.6055 163.842 18.8867C163.779 19.1641 163.748 19.4609 163.748 19.7773ZM176.375 21.916V18.6523C176.375 18.4023 176.324 18.1855 176.223 18.002C176.125 17.8145 175.977 17.6699 175.777 17.5684C175.578 17.4668 175.332 17.416 175.039 17.416C174.766 17.416 174.525 17.4629 174.318 17.5566C174.115 17.6504 173.955 17.7734 173.838 17.9258C173.725 18.0781 173.668 18.2422 173.668 18.418H172.584C172.584 18.1914 172.643 17.9668 172.76 17.7441C172.877 17.5215 173.045 17.3203 173.264 17.1406C173.486 16.957 173.752 16.8125 174.061 16.707C174.373 16.5977 174.721 16.543 175.104 16.543C175.564 16.543 175.971 16.6211 176.322 16.7773C176.678 16.9336 176.955 17.1699 177.154 17.4863C177.357 17.7988 177.459 18.1914 177.459 18.6641V21.6172C177.459 21.8281 177.477 22.0527 177.512 22.291C177.551 22.5293 177.607 22.7344 177.682 22.9062V23H176.551C176.496 22.875 176.453 22.709 176.422 22.502C176.391 22.291 176.375 22.0957 176.375 21.916ZM176.562 19.1562L176.574 19.918H175.479C175.17 19.918 174.895 19.9434 174.652 19.9941C174.41 20.041 174.207 20.1133 174.043 20.2109C173.879 20.3086 173.754 20.4316 173.668 20.5801C173.582 20.7246 173.539 20.8945 173.539 21.0898C173.539 21.2891 173.584 21.4707 173.674 21.6348C173.764 21.7988 173.898 21.9297 174.078 22.0273C174.262 22.1211 174.486 22.168 174.752 22.168C175.084 22.168 175.377 22.0977 175.631 21.957C175.885 21.8164 176.086 21.6445 176.234 21.4414C176.387 21.2383 176.469 21.041 176.48 20.8496L176.943 21.3711C176.916 21.5352 176.842 21.7168 176.721 21.916C176.6 22.1152 176.438 22.3066 176.234 22.4902C176.035 22.6699 175.797 22.8203 175.52 22.9414C175.246 23.0586 174.938 23.1172 174.594 23.1172C174.164 23.1172 173.787 23.0332 173.463 22.8652C173.143 22.6973 172.893 22.4727 172.713 22.1914C172.537 21.9062 172.449 21.5879 172.449 21.2363C172.449 20.8965 172.516 20.5977 172.648 20.3398C172.781 20.0781 172.973 19.8613 173.223 19.6895C173.473 19.5137 173.773 19.3809 174.125 19.291C174.477 19.2012 174.869 19.1562 175.303 19.1562H176.562ZM183.225 18.0137V23H182.141V16.6602H183.166L183.225 18.0137ZM182.967 19.5898L182.516 19.5723C182.52 19.1387 182.584 18.7383 182.709 18.3711C182.834 18 183.01 17.6777 183.236 17.4043C183.463 17.1309 183.732 16.9199 184.045 16.7715C184.361 16.6191 184.711 16.543 185.094 16.543C185.406 16.543 185.688 16.5859 185.938 16.6719C186.188 16.7539 186.4 16.8867 186.576 17.0703C186.756 17.2539 186.893 17.4922 186.986 17.7852C187.08 18.0742 187.127 18.4277 187.127 18.8457V23H186.037V18.834C186.037 18.502 185.988 18.2363 185.891 18.0371C185.793 17.834 185.65 17.6875 185.463 17.5977C185.275 17.5039 185.045 17.457 184.771 17.457C184.502 17.457 184.256 17.5137 184.033 17.627C183.814 17.7402 183.625 17.8965 183.465 18.0957C183.309 18.2949 183.186 18.5234 183.096 18.7812C183.01 19.0352 182.967 19.3047 182.967 19.5898ZM191.404 23.1172C190.963 23.1172 190.562 23.043 190.203 22.8945C189.848 22.7422 189.541 22.5293 189.283 22.2559C189.029 21.9824 188.834 21.6582 188.697 21.2832C188.561 20.9082 188.492 20.498 188.492 20.0527V19.8066C188.492 19.291 188.568 18.832 188.721 18.4297C188.873 18.0234 189.08 17.6797 189.342 17.3984C189.604 17.1172 189.9 16.9043 190.232 16.7598C190.564 16.6152 190.908 16.543 191.264 16.543C191.717 16.543 192.107 16.6211 192.436 16.7773C192.768 16.9336 193.039 17.1523 193.25 17.4336C193.461 17.7109 193.617 18.0391 193.719 18.418C193.82 18.793 193.871 19.2031 193.871 19.6484V20.1348H189.137V19.25H192.787V19.168C192.771 18.8867 192.713 18.6133 192.611 18.3477C192.514 18.082 192.357 17.8633 192.143 17.6914C191.928 17.5195 191.635 17.4336 191.264 17.4336C191.018 17.4336 190.791 17.4863 190.584 17.5918C190.377 17.6934 190.199 17.8457 190.051 18.0488C189.902 18.252 189.787 18.5 189.705 18.793C189.623 19.0859 189.582 19.4238 189.582 19.8066V20.0527C189.582 20.3535 189.623 20.6367 189.705 20.9023C189.791 21.1641 189.914 21.3945 190.074 21.5938C190.238 21.793 190.436 21.9492 190.666 22.0625C190.9 22.1758 191.166 22.2324 191.463 22.2324C191.846 22.2324 192.17 22.1543 192.436 21.998C192.701 21.8418 192.934 21.6328 193.133 21.3711L193.789 21.8926C193.652 22.0996 193.479 22.2969 193.268 22.4844C193.057 22.6719 192.797 22.8242 192.488 22.9414C192.184 23.0586 191.822 23.1172 191.404 23.1172ZM196.742 21.875L198.371 16.6602H199.086L198.945 17.6973L197.287 23H196.59L196.742 21.875ZM195.646 16.6602L197.035 21.9336L197.135 23H196.402L194.562 16.6602H195.646ZM200.645 21.8926L201.969 16.6602H203.047L201.207 23H200.48L200.645 21.8926ZM199.244 16.6602L200.838 21.7871L201.02 23H200.328L198.623 17.6855L198.482 16.6602H199.244ZM210.875 21.916V18.6523C210.875 18.4023 210.824 18.1855 210.723 18.002C210.625 17.8145 210.477 17.6699 210.277 17.5684C210.078 17.4668 209.832 17.416 209.539 17.416C209.266 17.416 209.025 17.4629 208.818 17.5566C208.615 17.6504 208.455 17.7734 208.338 17.9258C208.225 18.0781 208.168 18.2422 208.168 18.418H207.084C207.084 18.1914 207.143 17.9668 207.26 17.7441C207.377 17.5215 207.545 17.3203 207.764 17.1406C207.986 16.957 208.252 16.8125 208.561 16.707C208.873 16.5977 209.221 16.543 209.604 16.543C210.064 16.543 210.471 16.6211 210.822 16.7773C211.178 16.9336 211.455 17.1699 211.654 17.4863C211.857 17.7988 211.959 18.1914 211.959 18.6641V21.6172C211.959 21.8281 211.977 22.0527 212.012 22.291C212.051 22.5293 212.107 22.7344 212.182 22.9062V23H211.051C210.996 22.875 210.953 22.709 210.922 22.502C210.891 22.291 210.875 22.0957 210.875 21.916ZM211.062 19.1562L211.074 19.918H209.979C209.67 19.918 209.395 19.9434 209.152 19.9941C208.91 20.041 208.707 20.1133 208.543 20.2109C208.379 20.3086 208.254 20.4316 208.168 20.5801C208.082 20.7246 208.039 20.8945 208.039 21.0898C208.039 21.2891 208.084 21.4707 208.174 21.6348C208.264 21.7988 208.398 21.9297 208.578 22.0273C208.762 22.1211 208.986 22.168 209.252 22.168C209.584 22.168 209.877 22.0977 210.131 21.957C210.385 21.8164 210.586 21.6445 210.734 21.4414C210.887 21.2383 210.969 21.041 210.98 20.8496L211.443 21.3711C211.416 21.5352 211.342 21.7168 211.221 21.916C211.1 22.1152 210.938 22.3066 210.734 22.4902C210.535 22.6699 210.297 22.8203 210.02 22.9414C209.746 23.0586 209.438 23.1172 209.094 23.1172C208.664 23.1172 208.287 23.0332 207.963 22.8652C207.643 22.6973 207.393 22.4727 207.213 22.1914C207.037 21.9062 206.949 21.5879 206.949 21.2363C206.949 20.8965 207.016 20.5977 207.148 20.3398C207.281 20.0781 207.473 19.8613 207.723 19.6895C207.973 19.5137 208.273 19.3809 208.625 19.291C208.977 19.2012 209.369 19.1562 209.803 19.1562H211.062ZM216.201 22.2266C216.459 22.2266 216.697 22.1738 216.916 22.0684C217.135 21.9629 217.314 21.8184 217.455 21.6348C217.596 21.4473 217.676 21.2344 217.695 20.9961H218.727C218.707 21.3711 218.58 21.7207 218.346 22.0449C218.115 22.3652 217.812 22.625 217.438 22.8242C217.062 23.0195 216.65 23.1172 216.201 23.1172C215.725 23.1172 215.309 23.0332 214.953 22.8652C214.602 22.6973 214.309 22.4668 214.074 22.1738C213.844 21.8809 213.67 21.5449 213.553 21.166C213.439 20.7832 213.383 20.3789 213.383 19.9531V19.707C213.383 19.2812 213.439 18.8789 213.553 18.5C213.67 18.1172 213.844 17.7793 214.074 17.4863C214.309 17.1934 214.602 16.9629 214.953 16.7949C215.309 16.627 215.725 16.543 216.201 16.543C216.697 16.543 217.131 16.6445 217.502 16.8477C217.873 17.0469 218.164 17.3203 218.375 17.668C218.59 18.0117 218.707 18.4023 218.727 18.8398H217.695C217.676 18.5781 217.602 18.3418 217.473 18.1309C217.348 17.9199 217.176 17.752 216.957 17.627C216.742 17.498 216.49 17.4336 216.201 17.4336C215.869 17.4336 215.59 17.5 215.363 17.6328C215.141 17.7617 214.963 17.9375 214.83 18.1602C214.701 18.3789 214.607 18.623 214.549 18.8926C214.494 19.1582 214.467 19.4297 214.467 19.707V19.9531C214.467 20.2305 214.494 20.5039 214.549 20.7734C214.604 21.043 214.695 21.2871 214.824 21.5059C214.957 21.7246 215.135 21.9004 215.357 22.0332C215.584 22.1621 215.865 22.2266 216.201 22.2266ZM222.482 22.2266C222.74 22.2266 222.979 22.1738 223.197 22.0684C223.416 21.9629 223.596 21.8184 223.736 21.6348C223.877 21.4473 223.957 21.2344 223.977 20.9961H225.008C224.988 21.3711 224.861 21.7207 224.627 22.0449C224.396 22.3652 224.094 22.625 223.719 22.8242C223.344 23.0195 222.932 23.1172 222.482 23.1172C222.006 23.1172 221.59 23.0332 221.234 22.8652C220.883 22.6973 220.59 22.4668 220.355 22.1738C220.125 21.8809 219.951 21.5449 219.834 21.166C219.721 20.7832 219.664 20.3789 219.664 19.9531V19.707C219.664 19.2812 219.721 18.8789 219.834 18.5C219.951 18.1172 220.125 17.7793 220.355 17.4863C220.59 17.1934 220.883 16.9629 221.234 16.7949C221.59 16.627 222.006 16.543 222.482 16.543C222.979 16.543 223.412 16.6445 223.783 16.8477C224.154 17.0469 224.445 17.3203 224.656 17.668C224.871 18.0117 224.988 18.4023 225.008 18.8398H223.977C223.957 18.5781 223.883 18.3418 223.754 18.1309C223.629 17.9199 223.457 17.752 223.238 17.627C223.023 17.498 222.771 17.4336 222.482 17.4336C222.15 17.4336 221.871 17.5 221.645 17.6328C221.422 17.7617 221.244 17.9375 221.111 18.1602C220.982 18.3789 220.889 18.623 220.83 18.8926C220.775 19.1582 220.748 19.4297 220.748 19.707V19.9531C220.748 20.2305 220.775 20.5039 220.83 20.7734C220.885 21.043 220.977 21.2871 221.105 21.5059C221.238 21.7246 221.416 21.9004 221.639 22.0332C221.865 22.1621 222.146 22.2266 222.482 22.2266ZM225.939 19.9004V19.7656C225.939 19.3086 226.006 18.8848 226.139 18.4941C226.271 18.0996 226.463 17.7578 226.713 17.4688C226.963 17.1758 227.266 16.9492 227.621 16.7891C227.977 16.625 228.375 16.543 228.816 16.543C229.262 16.543 229.662 16.625 230.018 16.7891C230.377 16.9492 230.682 17.1758 230.932 17.4688C231.186 17.7578 231.379 18.0996 231.512 18.4941C231.645 18.8848 231.711 19.3086 231.711 19.7656V19.9004C231.711 20.3574 231.645 20.7812 231.512 21.1719C231.379 21.5625 231.186 21.9043 230.932 22.1973C230.682 22.4863 230.379 22.7129 230.023 22.877C229.672 23.0371 229.273 23.1172 228.828 23.1172C228.383 23.1172 227.982 23.0371 227.627 22.877C227.271 22.7129 226.967 22.4863 226.713 22.1973C226.463 21.9043 226.271 21.5625 226.139 21.1719C226.006 20.7812 225.939 20.3574 225.939 19.9004ZM227.023 19.7656V19.9004C227.023 20.2168 227.061 20.5156 227.135 20.7969C227.209 21.0742 227.32 21.3203 227.469 21.5352C227.621 21.75 227.811 21.9199 228.037 22.0449C228.264 22.166 228.527 22.2266 228.828 22.2266C229.125 22.2266 229.385 22.166 229.607 22.0449C229.834 21.9199 230.021 21.75 230.17 21.5352C230.318 21.3203 230.43 21.0742 230.504 20.7969C230.582 20.5156 230.621 20.2168 230.621 19.9004V19.7656C230.621 19.4531 230.582 19.1582 230.504 18.8809C230.43 18.5996 230.316 18.3516 230.164 18.1367C230.016 17.918 229.828 17.7461 229.602 17.6211C229.379 17.4961 229.117 17.4336 228.816 17.4336C228.52 17.4336 228.258 17.4961 228.031 17.6211C227.809 17.7461 227.621 17.918 227.469 18.1367C227.32 18.3516 227.209 18.5996 227.135 18.8809C227.061 19.1582 227.023 19.4531 227.023 19.7656ZM236.949 21.5352V16.6602H238.039V23H237.002L236.949 21.5352ZM237.154 20.1992L237.605 20.1875C237.605 20.6094 237.561 21 237.471 21.3594C237.385 21.7148 237.244 22.0234 237.049 22.2852C236.854 22.5469 236.598 22.752 236.281 22.9004C235.965 23.0449 235.58 23.1172 235.127 23.1172C234.818 23.1172 234.535 23.0723 234.277 22.9824C234.023 22.8926 233.805 22.7539 233.621 22.5664C233.438 22.3789 233.295 22.1348 233.193 21.834C233.096 21.5332 233.047 21.1719 233.047 20.75V16.6602H234.131V20.7617C234.131 21.0469 234.162 21.2832 234.225 21.4707C234.291 21.6543 234.379 21.8008 234.488 21.9102C234.602 22.0156 234.727 22.0898 234.863 22.1328C235.004 22.1758 235.148 22.1973 235.297 22.1973C235.758 22.1973 236.123 22.1094 236.393 21.9336C236.662 21.7539 236.855 21.5137 236.973 21.2129C237.094 20.9082 237.154 20.5703 237.154 20.1992ZM240.775 18.0137V23H239.691V16.6602H240.717L240.775 18.0137ZM240.518 19.5898L240.066 19.5723C240.07 19.1387 240.135 18.7383 240.26 18.3711C240.385 18 240.561 17.6777 240.787 17.4043C241.014 17.1309 241.283 16.9199 241.596 16.7715C241.912 16.6191 242.262 16.543 242.645 16.543C242.957 16.543 243.238 16.5859 243.488 16.6719C243.738 16.7539 243.951 16.8867 244.127 17.0703C244.307 17.2539 244.443 17.4922 244.537 17.7852C244.631 18.0742 244.678 18.4277 244.678 18.8457V23H243.588V18.834C243.588 18.502 243.539 18.2363 243.441 18.0371C243.344 17.834 243.201 17.6875 243.014 17.5977C242.826 17.5039 242.596 17.457 242.322 17.457C242.053 17.457 241.807 17.5137 241.584 17.627C241.365 17.7402 241.176 17.8965 241.016 18.0957C240.859 18.2949 240.736 18.5234 240.646 18.7812C240.561 19.0352 240.518 19.3047 240.518 19.5898ZM248.979 16.6602V17.4922H245.551V16.6602H248.979ZM246.711 15.1191H247.795V21.4297C247.795 21.6445 247.828 21.8066 247.895 21.916C247.961 22.0254 248.047 22.0977 248.152 22.1328C248.258 22.168 248.371 22.1855 248.492 22.1855C248.582 22.1855 248.676 22.1777 248.773 22.1621C248.875 22.1426 248.951 22.127 249.002 22.1152L249.008 23C248.922 23.0273 248.809 23.0527 248.668 23.0762C248.531 23.1035 248.365 23.1172 248.17 23.1172C247.904 23.1172 247.66 23.0645 247.438 22.959C247.215 22.8535 247.037 22.6777 246.904 22.4316C246.775 22.1816 246.711 21.8457 246.711 21.4238V15.1191ZM251.234 21.7109V22.584C251.234 22.9395 251.145 23.3145 250.965 23.709C250.785 24.1074 250.533 24.4395 250.209 24.7051L249.594 24.2773C249.719 24.1055 249.824 23.9297 249.91 23.75C249.996 23.5742 250.061 23.3906 250.104 23.1992C250.15 23.0117 250.174 22.8125 250.174 22.6016V21.7109H251.234ZM38.5039 34.4688V43H37.3906V34.4688H38.5039ZM41.2461 34.4688V35.3945H34.6543V34.4688H41.2461ZM44.3926 43.1172C43.9512 43.1172 43.5508 43.043 43.1914 42.8945C42.8359 42.7422 42.5293 42.5293 42.2715 42.2559C42.0176 41.9824 41.8223 41.6582 41.6855 41.2832C41.5488 40.9082 41.4805 40.498 41.4805 40.0527V39.8066C41.4805 39.291 41.5566 38.832 41.709 38.4297C41.8613 38.0234 42.0684 37.6797 42.3301 37.3984C42.5918 37.1172 42.8887 36.9043 43.2207 36.7598C43.5527 36.6152 43.8965 36.543 44.252 36.543C44.7051 36.543 45.0957 36.6211 45.4238 36.7773C45.7559 36.9336 46.0273 37.1523 46.2383 37.4336C46.4492 37.7109 46.6055 38.0391 46.707 38.418C46.8086 38.793 46.8594 39.2031 46.8594 39.6484V40.1348H42.125V39.25H45.7754V39.168C45.7598 38.8867 45.7012 38.6133 45.5996 38.3477C45.502 38.082 45.3457 37.8633 45.1309 37.6914C44.916 37.5195 44.623 37.4336 44.252 37.4336C44.0059 37.4336 43.7793 37.4863 43.5723 37.5918C43.3652 37.6934 43.1875 37.8457 43.0391 38.0488C42.8906 38.252 42.7754 38.5 42.6934 38.793C42.6113 39.0859 42.5703 39.4238 42.5703 39.8066V40.0527C42.5703 40.3535 42.6113 40.6367 42.6934 40.9023C42.7793 41.1641 42.9023 41.3945 43.0625 41.5938C43.2266 41.793 43.4238 41.9492 43.6543 42.0625C43.8887 42.1758 44.1543 42.2324 44.4512 42.2324C44.834 42.2324 45.1582 42.1543 45.4238 41.998C45.6895 41.8418 45.9219 41.6328 46.1211 41.3711L46.7773 41.8926C46.6406 42.0996 46.4668 42.2969 46.2559 42.4844C46.0449 42.6719 45.7852 42.8242 45.4766 42.9414C45.1719 43.0586 44.8105 43.1172 44.3926 43.1172ZM49.209 37.6562V43H48.125V36.6602H49.1797L49.209 37.6562ZM51.1895 36.625L51.1836 37.6328C51.0938 37.6133 51.0078 37.6016 50.9258 37.5977C50.8477 37.5898 50.7578 37.5859 50.6562 37.5859C50.4062 37.5859 50.1855 37.625 49.9941 37.7031C49.8027 37.7812 49.6406 37.8906 49.5078 38.0312C49.375 38.1719 49.2695 38.3398 49.1914 38.5352C49.1172 38.7266 49.0684 38.9375 49.0449 39.168L48.7402 39.3438C48.7402 38.9609 48.7773 38.6016 48.8516 38.2656C48.9297 37.9297 49.0488 37.6328 49.209 37.375C49.3691 37.1133 49.5723 36.9102 49.8184 36.7656C50.0684 36.6172 50.3652 36.543 50.709 36.543C50.7871 36.543 50.877 36.5527 50.9785 36.5723C51.0801 36.5879 51.1504 36.6055 51.1895 36.625ZM53.2695 37.9199V43H52.1797V36.6602H53.2109L53.2695 37.9199ZM53.0469 39.5898L52.543 39.5723C52.5469 39.1387 52.6035 38.7383 52.7129 38.3711C52.8223 38 52.9844 37.6777 53.1992 37.4043C53.4141 37.1309 53.6816 36.9199 54.002 36.7715C54.3223 36.6191 54.6934 36.543 55.1152 36.543C55.4121 36.543 55.6855 36.5859 55.9355 36.6719C56.1855 36.7539 56.4023 36.8848 56.5859 37.0645C56.7695 37.2441 56.9121 37.4746 57.0137 37.7559C57.1152 38.0371 57.166 38.377 57.166 38.7754V43H56.082V38.8281C56.082 38.4961 56.0254 38.2305 55.9121 38.0312C55.8027 37.832 55.6465 37.6875 55.4434 37.5977C55.2402 37.5039 55.002 37.457 54.7285 37.457C54.4082 37.457 54.1406 37.5137 53.9258 37.627C53.7109 37.7402 53.5391 37.8965 53.4102 38.0957C53.2812 38.2949 53.1875 38.5234 53.1289 38.7812C53.0742 39.0352 53.0469 39.3047 53.0469 39.5898ZM57.1543 38.9922L56.4277 39.2148C56.4316 38.8672 56.4883 38.5332 56.5977 38.2129C56.7109 37.8926 56.873 37.6074 57.084 37.3574C57.2988 37.1074 57.5625 36.9102 57.875 36.7656C58.1875 36.6172 58.5449 36.543 58.9473 36.543C59.2871 36.543 59.5879 36.5879 59.8496 36.6777C60.1152 36.7676 60.3379 36.9062 60.5176 37.0938C60.7012 37.2773 60.8398 37.5137 60.9336 37.8027C61.0273 38.0918 61.0742 38.4355 61.0742 38.834V43H59.9844V38.8223C59.9844 38.4668 59.9277 38.1914 59.8145 37.9961C59.7051 37.7969 59.5488 37.6582 59.3457 37.5801C59.1465 37.498 58.9082 37.457 58.6309 37.457C58.3926 37.457 58.1816 37.498 57.998 37.5801C57.8145 37.6621 57.6602 37.7754 57.5352 37.9199C57.4102 38.0605 57.3145 38.2227 57.248 38.4062C57.1855 38.5898 57.1543 38.7852 57.1543 38.9922ZM66.4062 41.3184C66.4062 41.1621 66.3711 41.0176 66.3008 40.8848C66.2344 40.748 66.0957 40.625 65.8848 40.5156C65.6777 40.4023 65.3652 40.3047 64.9473 40.2227C64.5957 40.1484 64.2773 40.0605 63.9922 39.959C63.7109 39.8574 63.4707 39.7344 63.2715 39.5898C63.0762 39.4453 62.9258 39.2754 62.8203 39.0801C62.7148 38.8848 62.6621 38.6562 62.6621 38.3945C62.6621 38.1445 62.7168 37.9082 62.8262 37.6855C62.9395 37.4629 63.0977 37.2656 63.3008 37.0938C63.5078 36.9219 63.7559 36.7871 64.0449 36.6895C64.334 36.5918 64.6562 36.543 65.0117 36.543C65.5195 36.543 65.9531 36.6328 66.3125 36.8125C66.6719 36.9922 66.9473 37.2324 67.1387 37.5332C67.3301 37.8301 67.4258 38.1602 67.4258 38.5234H66.3418C66.3418 38.3477 66.2891 38.1777 66.1836 38.0137C66.082 37.8457 65.9316 37.707 65.7324 37.5977C65.5371 37.4883 65.2969 37.4336 65.0117 37.4336C64.7109 37.4336 64.4668 37.4805 64.2793 37.5742C64.0957 37.6641 63.9609 37.7793 63.875 37.9199C63.793 38.0605 63.752 38.209 63.752 38.3652C63.752 38.4824 63.7715 38.5879 63.8105 38.6816C63.8535 38.7715 63.9277 38.8555 64.0332 38.9336C64.1387 39.0078 64.2871 39.0781 64.4785 39.1445C64.6699 39.2109 64.9141 39.2773 65.2109 39.3438C65.7305 39.4609 66.1582 39.6016 66.4941 39.7656C66.8301 39.9297 67.0801 40.1309 67.2441 40.3691C67.4082 40.6074 67.4902 40.8965 67.4902 41.2363C67.4902 41.5137 67.4316 41.7676 67.3145 41.998C67.2012 42.2285 67.0352 42.4277 66.8164 42.5957C66.6016 42.7598 66.3438 42.8887 66.043 42.9824C65.7461 43.0723 65.4121 43.1172 65.041 43.1172C64.4824 43.1172 64.0098 43.0176 63.623 42.8184C63.2363 42.6191 62.9434 42.3613 62.7441 42.0449C62.5449 41.7285 62.4453 41.3945 62.4453 41.043H63.5352C63.5508 41.3398 63.6367 41.5762 63.793 41.752C63.9492 41.9238 64.1406 42.0469 64.3672 42.1211C64.5938 42.1914 64.8184 42.2266 65.041 42.2266C65.3379 42.2266 65.5859 42.1875 65.7852 42.1094C65.9883 42.0312 66.1426 41.9238 66.248 41.7871C66.3535 41.6504 66.4062 41.4941 66.4062 41.3184ZM73.4668 38.2656L74.7441 37.3574C74.9902 37.1895 75.1797 37.0215 75.3125 36.8535C75.4492 36.6816 75.5176 36.4473 75.5176 36.1504C75.5176 35.9199 75.4277 35.7109 75.248 35.5234C75.0684 35.332 74.8145 35.2363 74.4863 35.2363C74.2598 35.2363 74.0684 35.2891 73.9121 35.3945C73.7559 35.5 73.6387 35.6406 73.5605 35.8164C73.4824 35.9883 73.4434 36.1777 73.4434 36.3848C73.4434 36.5605 73.4863 36.7422 73.5723 36.9297C73.6582 37.1172 73.7773 37.3125 73.9297 37.5156C74.082 37.7188 74.2559 37.9336 74.4512 38.1602L78.4883 43H77.1875L73.877 39.0391C73.584 38.6953 73.3223 38.3809 73.0918 38.0957C72.8613 37.8066 72.6797 37.5273 72.5469 37.2578C72.418 36.9883 72.3535 36.709 72.3535 36.4199C72.3535 35.9746 72.4414 35.5996 72.6172 35.2949C72.7969 34.9863 73.0469 34.752 73.3672 34.5918C73.6875 34.4316 74.0625 34.3516 74.4922 34.3516C74.9102 34.3516 75.2695 34.4355 75.5703 34.6035C75.875 34.7676 76.1094 34.9863 76.2734 35.2598C76.4375 35.5293 76.5195 35.8262 76.5195 36.1504C76.5195 36.4238 76.4707 36.6699 76.373 36.8887C76.2754 37.1035 76.1387 37.3008 75.9629 37.4805C75.791 37.6602 75.5898 37.8359 75.3594 38.0078L73.666 39.2676C73.3848 39.4746 73.1797 39.6719 73.0508 39.8594C72.9219 40.0469 72.8379 40.2129 72.7988 40.3574C72.7637 40.502 72.7461 40.6172 72.7461 40.7031C72.7461 40.9805 72.8066 41.2344 72.9277 41.4648C73.0488 41.6953 73.2324 41.8809 73.4785 42.0215C73.7285 42.1582 74.041 42.2266 74.416 42.2266C74.7441 42.2266 75.0625 42.1523 75.3711 42.0039C75.6836 41.8516 75.9629 41.6367 76.209 41.3594C76.4551 41.0781 76.6504 40.7441 76.7949 40.3574C76.9434 39.9668 77.0176 39.5352 77.0176 39.0625H77.9902C77.9902 39.4492 77.9531 39.8145 77.8789 40.1582C77.8047 40.502 77.6895 40.8223 77.5332 41.1191C77.3809 41.4121 77.1855 41.6797 76.9473 41.9219C76.9121 41.957 76.8848 41.998 76.8652 42.0449C76.8457 42.0918 76.8184 42.1328 76.7832 42.168C76.4902 42.4844 76.1289 42.7227 75.6992 42.8828C75.2734 43.0391 74.8457 43.1172 74.416 43.1172C73.8496 43.1172 73.3594 43.0137 72.9453 42.8066C72.5352 42.5996 72.2188 42.3145 71.9961 41.9512C71.7734 41.5879 71.6621 41.1719 71.6621 40.7031C71.6621 40.3438 71.7383 40.0273 71.8906 39.7539C72.0469 39.4805 72.2598 39.2246 72.5293 38.9863C72.8027 38.748 73.1152 38.5078 73.4668 38.2656ZM87.6465 40.2871H88.7715C88.7129 40.8262 88.5586 41.3086 88.3086 41.7344C88.0586 42.1602 87.7051 42.498 87.248 42.748C86.791 42.9941 86.2207 43.1172 85.5371 43.1172C85.0371 43.1172 84.582 43.0234 84.1719 42.8359C83.7656 42.6484 83.416 42.3828 83.123 42.0391C82.8301 41.6914 82.6035 41.2754 82.4434 40.791C82.2871 40.3027 82.209 39.7598 82.209 39.1621V38.3125C82.209 37.7148 82.2871 37.1738 82.4434 36.6895C82.6035 36.2012 82.832 35.7832 83.1289 35.4355C83.4297 35.0879 83.791 34.8203 84.2129 34.6328C84.6348 34.4453 85.1094 34.3516 85.6367 34.3516C86.2812 34.3516 86.8262 34.4727 87.2715 34.7148C87.7168 34.957 88.0625 35.293 88.3086 35.7227C88.5586 36.1484 88.7129 36.6426 88.7715 37.2051H87.6465C87.5918 36.8066 87.4902 36.4648 87.3418 36.1797C87.1934 35.8906 86.9824 35.668 86.709 35.5117C86.4355 35.3555 86.0781 35.2773 85.6367 35.2773C85.2578 35.2773 84.9238 35.3496 84.6348 35.4941C84.3496 35.6387 84.1094 35.8438 83.9141 36.1094C83.7227 36.375 83.5781 36.6934 83.4805 37.0645C83.3828 37.4355 83.334 37.8477 83.334 38.3008V39.1621C83.334 39.5801 83.377 39.9727 83.4629 40.3398C83.5527 40.707 83.6875 41.0293 83.8672 41.3066C84.0469 41.584 84.2754 41.8027 84.5527 41.9629C84.8301 42.1191 85.1582 42.1973 85.5371 42.1973C86.0176 42.1973 86.4004 42.1211 86.6855 41.9688C86.9707 41.8164 87.1855 41.5977 87.3301 41.3125C87.4785 41.0273 87.584 40.6855 87.6465 40.2871ZM89.8613 39.9004V39.7656C89.8613 39.3086 89.9277 38.8848 90.0605 38.4941C90.1934 38.0996 90.3848 37.7578 90.6348 37.4688C90.8848 37.1758 91.1875 36.9492 91.543 36.7891C91.8984 36.625 92.2969 36.543 92.7383 36.543C93.1836 36.543 93.584 36.625 93.9395 36.7891C94.2988 36.9492 94.6035 37.1758 94.8535 37.4688C95.1074 37.7578 95.3008 38.0996 95.4336 38.4941C95.5664 38.8848 95.6328 39.3086 95.6328 39.7656V39.9004C95.6328 40.3574 95.5664 40.7812 95.4336 41.1719C95.3008 41.5625 95.1074 41.9043 94.8535 42.1973C94.6035 42.4863 94.3008 42.7129 93.9453 42.877C93.5938 43.0371 93.1953 43.1172 92.75 43.1172C92.3047 43.1172 91.9043 43.0371 91.5488 42.877C91.1934 42.7129 90.8887 42.4863 90.6348 42.1973C90.3848 41.9043 90.1934 41.5625 90.0605 41.1719C89.9277 40.7812 89.8613 40.3574 89.8613 39.9004ZM90.9453 39.7656V39.9004C90.9453 40.2168 90.9824 40.5156 91.0566 40.7969C91.1309 41.0742 91.2422 41.3203 91.3906 41.5352C91.543 41.75 91.7324 41.9199 91.959 42.0449C92.1855 42.166 92.4492 42.2266 92.75 42.2266C93.0469 42.2266 93.3066 42.166 93.5293 42.0449C93.7559 41.9199 93.9434 41.75 94.0918 41.5352C94.2402 41.3203 94.3516 41.0742 94.4258 40.7969C94.5039 40.5156 94.543 40.2168 94.543 39.9004V39.7656C94.543 39.4531 94.5039 39.1582 94.4258 38.8809C94.3516 38.5996 94.2383 38.3516 94.0859 38.1367C93.9375 37.918 93.75 37.7461 93.5234 37.6211C93.3008 37.4961 93.0391 37.4336 92.7383 37.4336C92.4414 37.4336 92.1797 37.4961 91.9531 37.6211C91.7305 37.7461 91.543 37.918 91.3906 38.1367C91.2422 38.3516 91.1309 38.5996 91.0566 38.8809C90.9824 39.1582 90.9453 39.4531 90.9453 39.7656ZM98.0762 38.0137V43H96.9922V36.6602H98.0176L98.0762 38.0137ZM97.8184 39.5898L97.3672 39.5723C97.3711 39.1387 97.4355 38.7383 97.5605 38.3711C97.6855 38 97.8613 37.6777 98.0879 37.4043C98.3145 37.1309 98.584 36.9199 98.8965 36.7715C99.2129 36.6191 99.5625 36.543 99.9453 36.543C100.258 36.543 100.539 36.5859 100.789 36.6719C101.039 36.7539 101.252 36.8867 101.428 37.0703C101.607 37.2539 101.744 37.4922 101.838 37.7852C101.932 38.0742 101.979 38.4277 101.979 38.8457V43H100.889V38.834C100.889 38.502 100.84 38.2363 100.742 38.0371C100.645 37.834 100.502 37.6875 100.314 37.5977C100.127 37.5039 99.8965 37.457 99.623 37.457C99.3535 37.457 99.1074 37.5137 98.8848 37.627C98.666 37.7402 98.4766 37.8965 98.3164 38.0957C98.1602 38.2949 98.0371 38.5234 97.9473 38.7812C97.8613 39.0352 97.8184 39.3047 97.8184 39.5898ZM107.621 41.7695V34H108.711V43H107.715L107.621 41.7695ZM103.355 39.9004V39.7773C103.355 39.293 103.414 38.8535 103.531 38.459C103.652 38.0605 103.822 37.7188 104.041 37.4336C104.264 37.1484 104.527 36.9297 104.832 36.7773C105.141 36.6211 105.484 36.543 105.863 36.543C106.262 36.543 106.609 36.6133 106.906 36.7539C107.207 36.8906 107.461 37.0918 107.668 37.3574C107.879 37.6191 108.045 37.9355 108.166 38.3066C108.287 38.6777 108.371 39.0977 108.418 39.5664V40.1055C108.375 40.5703 108.291 40.9883 108.166 41.3594C108.045 41.7305 107.879 42.0469 107.668 42.3086C107.461 42.5703 107.207 42.7715 106.906 42.9121C106.605 43.0488 106.254 43.1172 105.852 43.1172C105.48 43.1172 105.141 43.0371 104.832 42.877C104.527 42.7168 104.264 42.4922 104.041 42.2031C103.822 41.9141 103.652 41.5742 103.531 41.1836C103.414 40.7891 103.355 40.3613 103.355 39.9004ZM104.445 39.7773V39.9004C104.445 40.2168 104.477 40.5137 104.539 40.791C104.605 41.0684 104.707 41.3125 104.844 41.5234C104.98 41.7344 105.154 41.9004 105.365 42.0215C105.576 42.1387 105.828 42.1973 106.121 42.1973C106.48 42.1973 106.775 42.1211 107.006 41.9688C107.24 41.8164 107.428 41.6152 107.568 41.3652C107.709 41.1152 107.818 40.8438 107.896 40.5508V39.1387C107.85 38.9238 107.781 38.7168 107.691 38.5176C107.605 38.3145 107.492 38.1348 107.352 37.9785C107.215 37.8184 107.045 37.6914 106.842 37.5977C106.643 37.5039 106.406 37.457 106.133 37.457C105.836 37.457 105.58 37.5195 105.365 37.6445C105.154 37.7656 104.98 37.9336 104.844 38.1484C104.707 38.3594 104.605 38.6055 104.539 38.8867C104.477 39.1641 104.445 39.4609 104.445 39.7773ZM111.576 36.6602V43H110.486V36.6602H111.576ZM110.404 34.9785C110.404 34.8027 110.457 34.6543 110.562 34.5332C110.672 34.4121 110.832 34.3516 111.043 34.3516C111.25 34.3516 111.408 34.4121 111.518 34.5332C111.631 34.6543 111.688 34.8027 111.688 34.9785C111.688 35.1465 111.631 35.291 111.518 35.4121C111.408 35.5293 111.25 35.5879 111.043 35.5879C110.832 35.5879 110.672 35.5293 110.562 35.4121C110.457 35.291 110.404 35.1465 110.404 34.9785ZM115.971 36.6602V37.4922H112.543V36.6602H115.971ZM113.703 35.1191H114.787V41.4297C114.787 41.6445 114.82 41.8066 114.887 41.916C114.953 42.0254 115.039 42.0977 115.145 42.1328C115.25 42.168 115.363 42.1855 115.484 42.1855C115.574 42.1855 115.668 42.1777 115.766 42.1621C115.867 42.1426 115.943 42.127 115.994 42.1152L116 43C115.914 43.0273 115.801 43.0527 115.66 43.0762C115.523 43.1035 115.357 43.1172 115.162 43.1172C114.896 43.1172 114.652 43.0645 114.43 42.959C114.207 42.8535 114.029 42.6777 113.896 42.4316C113.768 42.1816 113.703 41.8457 113.703 41.4238V35.1191ZM118.42 36.6602V43H117.33V36.6602H118.42ZM117.248 34.9785C117.248 34.8027 117.301 34.6543 117.406 34.5332C117.516 34.4121 117.676 34.3516 117.887 34.3516C118.094 34.3516 118.252 34.4121 118.361 34.5332C118.475 34.6543 118.531 34.8027 118.531 34.9785C118.531 35.1465 118.475 35.291 118.361 35.4121C118.252 35.5293 118.094 35.5879 117.887 35.5879C117.676 35.5879 117.516 35.5293 117.406 35.4121C117.301 35.291 117.248 35.1465 117.248 34.9785ZM119.873 39.9004V39.7656C119.873 39.3086 119.939 38.8848 120.072 38.4941C120.205 38.0996 120.396 37.7578 120.646 37.4688C120.896 37.1758 121.199 36.9492 121.555 36.7891C121.91 36.625 122.309 36.543 122.75 36.543C123.195 36.543 123.596 36.625 123.951 36.7891C124.311 36.9492 124.615 37.1758 124.865 37.4688C125.119 37.7578 125.312 38.0996 125.445 38.4941C125.578 38.8848 125.645 39.3086 125.645 39.7656V39.9004C125.645 40.3574 125.578 40.7812 125.445 41.1719C125.312 41.5625 125.119 41.9043 124.865 42.1973C124.615 42.4863 124.312 42.7129 123.957 42.877C123.605 43.0371 123.207 43.1172 122.762 43.1172C122.316 43.1172 121.916 43.0371 121.561 42.877C121.205 42.7129 120.9 42.4863 120.646 42.1973C120.396 41.9043 120.205 41.5625 120.072 41.1719C119.939 40.7812 119.873 40.3574 119.873 39.9004ZM120.957 39.7656V39.9004C120.957 40.2168 120.994 40.5156 121.068 40.7969C121.143 41.0742 121.254 41.3203 121.402 41.5352C121.555 41.75 121.744 41.9199 121.971 42.0449C122.197 42.166 122.461 42.2266 122.762 42.2266C123.059 42.2266 123.318 42.166 123.541 42.0449C123.768 41.9199 123.955 41.75 124.104 41.5352C124.252 41.3203 124.363 41.0742 124.438 40.7969C124.516 40.5156 124.555 40.2168 124.555 39.9004V39.7656C124.555 39.4531 124.516 39.1582 124.438 38.8809C124.363 38.5996 124.25 38.3516 124.098 38.1367C123.949 37.918 123.762 37.7461 123.535 37.6211C123.312 37.4961 123.051 37.4336 122.75 37.4336C122.453 37.4336 122.191 37.4961 121.965 37.6211C121.742 37.7461 121.555 37.918 121.402 38.1367C121.254 38.3516 121.143 38.5996 121.068 38.8809C120.994 39.1582 120.957 39.4531 120.957 39.7656ZM128.088 38.0137V43H127.004V36.6602H128.029L128.088 38.0137ZM127.83 39.5898L127.379 39.5723C127.383 39.1387 127.447 38.7383 127.572 38.3711C127.697 38 127.873 37.6777 128.1 37.4043C128.326 37.1309 128.596 36.9199 128.908 36.7715C129.225 36.6191 129.574 36.543 129.957 36.543C130.27 36.543 130.551 36.5859 130.801 36.6719C131.051 36.7539 131.264 36.8867 131.439 37.0703C131.619 37.2539 131.756 37.4922 131.85 37.7852C131.943 38.0742 131.99 38.4277 131.99 38.8457V43H130.9V38.834C130.9 38.502 130.852 38.2363 130.754 38.0371C130.656 37.834 130.514 37.6875 130.326 37.5977C130.139 37.5039 129.908 37.457 129.635 37.457C129.365 37.457 129.119 37.5137 128.896 37.627C128.678 37.7402 128.488 37.8965 128.328 38.0957C128.172 38.2949 128.049 38.5234 127.959 38.7812C127.873 39.0352 127.83 39.3047 127.83 39.5898ZM137.328 41.3184C137.328 41.1621 137.293 41.0176 137.223 40.8848C137.156 40.748 137.018 40.625 136.807 40.5156C136.6 40.4023 136.287 40.3047 135.869 40.2227C135.518 40.1484 135.199 40.0605 134.914 39.959C134.633 39.8574 134.393 39.7344 134.193 39.5898C133.998 39.4453 133.848 39.2754 133.742 39.0801C133.637 38.8848 133.584 38.6562 133.584 38.3945C133.584 38.1445 133.639 37.9082 133.748 37.6855C133.861 37.4629 134.02 37.2656 134.223 37.0938C134.43 36.9219 134.678 36.7871 134.967 36.6895C135.256 36.5918 135.578 36.543 135.934 36.543C136.441 36.543 136.875 36.6328 137.234 36.8125C137.594 36.9922 137.869 37.2324 138.061 37.5332C138.252 37.8301 138.348 38.1602 138.348 38.5234H137.264C137.264 38.3477 137.211 38.1777 137.105 38.0137C137.004 37.8457 136.854 37.707 136.654 37.5977C136.459 37.4883 136.219 37.4336 135.934 37.4336C135.633 37.4336 135.389 37.4805 135.201 37.5742C135.018 37.6641 134.883 37.7793 134.797 37.9199C134.715 38.0605 134.674 38.209 134.674 38.3652C134.674 38.4824 134.693 38.5879 134.732 38.6816C134.775 38.7715 134.85 38.8555 134.955 38.9336C135.061 39.0078 135.209 39.0781 135.4 39.1445C135.592 39.2109 135.836 39.2773 136.133 39.3438C136.652 39.4609 137.08 39.6016 137.416 39.7656C137.752 39.9297 138.002 40.1309 138.166 40.3691C138.33 40.6074 138.412 40.8965 138.412 41.2363C138.412 41.5137 138.354 41.7676 138.236 41.998C138.123 42.2285 137.957 42.4277 137.738 42.5957C137.523 42.7598 137.266 42.8887 136.965 42.9824C136.668 43.0723 136.334 43.1172 135.963 43.1172C135.404 43.1172 134.932 43.0176 134.545 42.8184C134.158 42.6191 133.865 42.3613 133.666 42.0449C133.467 41.7285 133.367 41.3945 133.367 41.043H134.457C134.473 41.3398 134.559 41.5762 134.715 41.752C134.871 41.9238 135.062 42.0469 135.289 42.1211C135.516 42.1914 135.74 42.2266 135.963 42.2266C136.26 42.2266 136.508 42.1875 136.707 42.1094C136.91 42.0312 137.064 41.9238 137.17 41.7871C137.275 41.6504 137.328 41.4941 137.328 41.3184ZM146.551 41.916V38.6523C146.551 38.4023 146.5 38.1855 146.398 38.002C146.301 37.8145 146.152 37.6699 145.953 37.5684C145.754 37.4668 145.508 37.416 145.215 37.416C144.941 37.416 144.701 37.4629 144.494 37.5566C144.291 37.6504 144.131 37.7734 144.014 37.9258C143.9 38.0781 143.844 38.2422 143.844 38.418H142.76C142.76 38.1914 142.818 37.9668 142.936 37.7441C143.053 37.5215 143.221 37.3203 143.439 37.1406C143.662 36.957 143.928 36.8125 144.236 36.707C144.549 36.5977 144.896 36.543 145.279 36.543C145.74 36.543 146.146 36.6211 146.498 36.7773C146.854 36.9336 147.131 37.1699 147.33 37.4863C147.533 37.7988 147.635 38.1914 147.635 38.6641V41.6172C147.635 41.8281 147.652 42.0527 147.688 42.291C147.727 42.5293 147.783 42.7344 147.857 42.9062V43H146.727C146.672 42.875 146.629 42.709 146.598 42.502C146.566 42.291 146.551 42.0957 146.551 41.916ZM146.738 39.1562L146.75 39.918H145.654C145.346 39.918 145.07 39.9434 144.828 39.9941C144.586 40.041 144.383 40.1133 144.219 40.2109C144.055 40.3086 143.93 40.4316 143.844 40.5801C143.758 40.7246 143.715 40.8945 143.715 41.0898C143.715 41.2891 143.76 41.4707 143.85 41.6348C143.939 41.7988 144.074 41.9297 144.254 42.0273C144.438 42.1211 144.662 42.168 144.928 42.168C145.26 42.168 145.553 42.0977 145.807 41.957C146.061 41.8164 146.262 41.6445 146.41 41.4414C146.562 41.2383 146.645 41.041 146.656 40.8496L147.119 41.3711C147.092 41.5352 147.018 41.7168 146.896 41.916C146.775 42.1152 146.613 42.3066 146.41 42.4902C146.211 42.6699 145.973 42.8203 145.695 42.9414C145.422 43.0586 145.113 43.1172 144.77 43.1172C144.34 43.1172 143.963 43.0332 143.639 42.8652C143.318 42.6973 143.068 42.4727 142.889 42.1914C142.713 41.9062 142.625 41.5879 142.625 41.2363C142.625 40.8965 142.691 40.5977 142.824 40.3398C142.957 40.0781 143.148 39.8613 143.398 39.6895C143.648 39.5137 143.949 39.3809 144.301 39.291C144.652 39.2012 145.045 39.1562 145.479 39.1562H146.738ZM150.424 38.0137V43H149.34V36.6602H150.365L150.424 38.0137ZM150.166 39.5898L149.715 39.5723C149.719 39.1387 149.783 38.7383 149.908 38.3711C150.033 38 150.209 37.6777 150.436 37.4043C150.662 37.1309 150.932 36.9199 151.244 36.7715C151.561 36.6191 151.91 36.543 152.293 36.543C152.605 36.543 152.887 36.5859 153.137 36.6719C153.387 36.7539 153.6 36.8867 153.775 37.0703C153.955 37.2539 154.092 37.4922 154.186 37.7852C154.279 38.0742 154.326 38.4277 154.326 38.8457V43H153.236V38.834C153.236 38.502 153.188 38.2363 153.09 38.0371C152.992 37.834 152.85 37.6875 152.662 37.5977C152.475 37.5039 152.244 37.457 151.971 37.457C151.701 37.457 151.455 37.5137 151.232 37.627C151.014 37.7402 150.824 37.8965 150.664 38.0957C150.508 38.2949 150.385 38.5234 150.295 38.7812C150.209 39.0352 150.166 39.3047 150.166 39.5898ZM159.969 41.7695V34H161.059V43H160.062L159.969 41.7695ZM155.703 39.9004V39.7773C155.703 39.293 155.762 38.8535 155.879 38.459C156 38.0605 156.17 37.7188 156.389 37.4336C156.611 37.1484 156.875 36.9297 157.18 36.7773C157.488 36.6211 157.832 36.543 158.211 36.543C158.609 36.543 158.957 36.6133 159.254 36.7539C159.555 36.8906 159.809 37.0918 160.016 37.3574C160.227 37.6191 160.393 37.9355 160.514 38.3066C160.635 38.6777 160.719 39.0977 160.766 39.5664V40.1055C160.723 40.5703 160.639 40.9883 160.514 41.3594C160.393 41.7305 160.227 42.0469 160.016 42.3086C159.809 42.5703 159.555 42.7715 159.254 42.9121C158.953 43.0488 158.602 43.1172 158.199 43.1172C157.828 43.1172 157.488 43.0371 157.18 42.877C156.875 42.7168 156.611 42.4922 156.389 42.2031C156.17 41.9141 156 41.5742 155.879 41.1836C155.762 40.7891 155.703 40.3613 155.703 39.9004ZM156.793 39.7773V39.9004C156.793 40.2168 156.824 40.5137 156.887 40.791C156.953 41.0684 157.055 41.3125 157.191 41.5234C157.328 41.7344 157.502 41.9004 157.713 42.0215C157.924 42.1387 158.176 42.1973 158.469 42.1973C158.828 42.1973 159.123 42.1211 159.354 41.9688C159.588 41.8164 159.775 41.6152 159.916 41.3652C160.057 41.1152 160.166 40.8438 160.244 40.5508V39.1387C160.197 38.9238 160.129 38.7168 160.039 38.5176C159.953 38.3145 159.84 38.1348 159.699 37.9785C159.562 37.8184 159.393 37.6914 159.189 37.5977C158.99 37.5039 158.754 37.457 158.48 37.457C158.184 37.457 157.928 37.5195 157.713 37.6445C157.502 37.7656 157.328 37.9336 157.191 38.1484C157.055 38.3594 156.953 38.6055 156.887 38.8867C156.824 39.1641 156.793 39.4609 156.793 39.7773ZM169.033 39.6543H166.754V38.7344H169.033C169.475 38.7344 169.832 38.6641 170.105 38.5234C170.379 38.3828 170.578 38.1875 170.703 37.9375C170.832 37.6875 170.896 37.4023 170.896 37.082C170.896 36.7891 170.832 36.5137 170.703 36.2559C170.578 35.998 170.379 35.791 170.105 35.6348C169.832 35.4746 169.475 35.3945 169.033 35.3945H167.018V43H165.887V34.4688H169.033C169.678 34.4688 170.223 34.5801 170.668 34.8027C171.113 35.0254 171.451 35.334 171.682 35.7285C171.912 36.1191 172.027 36.5664 172.027 37.0703C172.027 37.6172 171.912 38.084 171.682 38.4707C171.451 38.8574 171.113 39.1523 170.668 39.3555C170.223 39.5547 169.678 39.6543 169.033 39.6543ZM174.377 37.6562V43H173.293V36.6602H174.348L174.377 37.6562ZM176.357 36.625L176.352 37.6328C176.262 37.6133 176.176 37.6016 176.094 37.5977C176.016 37.5898 175.926 37.5859 175.824 37.5859C175.574 37.5859 175.354 37.625 175.162 37.7031C174.971 37.7812 174.809 37.8906 174.676 38.0312C174.543 38.1719 174.438 38.3398 174.359 38.5352C174.285 38.7266 174.236 38.9375 174.213 39.168L173.908 39.3438C173.908 38.9609 173.945 38.6016 174.02 38.2656C174.098 37.9297 174.217 37.6328 174.377 37.375C174.537 37.1133 174.74 36.9102 174.986 36.7656C175.236 36.6172 175.533 36.543 175.877 36.543C175.955 36.543 176.045 36.5527 176.146 36.5723C176.248 36.5879 176.318 36.6055 176.357 36.625ZM178.537 36.6602V43H177.447V36.6602H178.537ZM177.365 34.9785C177.365 34.8027 177.418 34.6543 177.523 34.5332C177.633 34.4121 177.793 34.3516 178.004 34.3516C178.211 34.3516 178.369 34.4121 178.479 34.5332C178.592 34.6543 178.648 34.8027 178.648 34.9785C178.648 35.1465 178.592 35.291 178.479 35.4121C178.369 35.5293 178.211 35.5879 178.004 35.5879C177.793 35.5879 177.633 35.5293 177.523 35.4121C177.418 35.291 177.365 35.1465 177.365 34.9785ZM182.205 42.0215L183.939 36.6602H185.047L182.768 43H182.041L182.205 42.0215ZM180.758 36.6602L182.545 42.0508L182.668 43H181.941L179.645 36.6602H180.758ZM189.734 41.916V38.6523C189.734 38.4023 189.684 38.1855 189.582 38.002C189.484 37.8145 189.336 37.6699 189.137 37.5684C188.938 37.4668 188.691 37.416 188.398 37.416C188.125 37.416 187.885 37.4629 187.678 37.5566C187.475 37.6504 187.314 37.7734 187.197 37.9258C187.084 38.0781 187.027 38.2422 187.027 38.418H185.943C185.943 38.1914 186.002 37.9668 186.119 37.7441C186.236 37.5215 186.404 37.3203 186.623 37.1406C186.846 36.957 187.111 36.8125 187.42 36.707C187.732 36.5977 188.08 36.543 188.463 36.543C188.924 36.543 189.33 36.6211 189.682 36.7773C190.037 36.9336 190.314 37.1699 190.514 37.4863C190.717 37.7988 190.818 38.1914 190.818 38.6641V41.6172C190.818 41.8281 190.836 42.0527 190.871 42.291C190.91 42.5293 190.967 42.7344 191.041 42.9062V43H189.91C189.855 42.875 189.812 42.709 189.781 42.502C189.75 42.291 189.734 42.0957 189.734 41.916ZM189.922 39.1562L189.934 39.918H188.838C188.529 39.918 188.254 39.9434 188.012 39.9941C187.77 40.041 187.566 40.1133 187.402 40.2109C187.238 40.3086 187.113 40.4316 187.027 40.5801C186.941 40.7246 186.898 40.8945 186.898 41.0898C186.898 41.2891 186.943 41.4707 187.033 41.6348C187.123 41.7988 187.258 41.9297 187.438 42.0273C187.621 42.1211 187.846 42.168 188.111 42.168C188.443 42.168 188.736 42.0977 188.99 41.957C189.244 41.8164 189.445 41.6445 189.594 41.4414C189.746 41.2383 189.828 41.041 189.84 40.8496L190.303 41.3711C190.275 41.5352 190.201 41.7168 190.08 41.916C189.959 42.1152 189.797 42.3066 189.594 42.4902C189.395 42.6699 189.156 42.8203 188.879 42.9414C188.605 43.0586 188.297 43.1172 187.953 43.1172C187.523 43.1172 187.146 43.0332 186.822 42.8652C186.502 42.6973 186.252 42.4727 186.072 42.1914C185.896 41.9062 185.809 41.5879 185.809 41.2363C185.809 40.8965 185.875 40.5977 186.008 40.3398C186.141 40.0781 186.332 39.8613 186.582 39.6895C186.832 39.5137 187.133 39.3809 187.484 39.291C187.836 39.2012 188.229 39.1562 188.662 39.1562H189.922ZM195.061 42.2266C195.318 42.2266 195.557 42.1738 195.775 42.0684C195.994 41.9629 196.174 41.8184 196.314 41.6348C196.455 41.4473 196.535 41.2344 196.555 40.9961H197.586C197.566 41.3711 197.439 41.7207 197.205 42.0449C196.975 42.3652 196.672 42.625 196.297 42.8242C195.922 43.0195 195.51 43.1172 195.061 43.1172C194.584 43.1172 194.168 43.0332 193.812 42.8652C193.461 42.6973 193.168 42.4668 192.934 42.1738C192.703 41.8809 192.529 41.5449 192.412 41.166C192.299 40.7832 192.242 40.3789 192.242 39.9531V39.707C192.242 39.2812 192.299 38.8789 192.412 38.5C192.529 38.1172 192.703 37.7793 192.934 37.4863C193.168 37.1934 193.461 36.9629 193.812 36.7949C194.168 36.627 194.584 36.543 195.061 36.543C195.557 36.543 195.99 36.6445 196.361 36.8477C196.732 37.0469 197.023 37.3203 197.234 37.668C197.449 38.0117 197.566 38.4023 197.586 38.8398H196.555C196.535 38.5781 196.461 38.3418 196.332 38.1309C196.207 37.9199 196.035 37.752 195.816 37.627C195.602 37.498 195.35 37.4336 195.061 37.4336C194.729 37.4336 194.449 37.5 194.223 37.6328C194 37.7617 193.822 37.9375 193.689 38.1602C193.561 38.3789 193.467 38.623 193.408 38.8926C193.354 39.1582 193.326 39.4297 193.326 39.707V39.9531C193.326 40.2305 193.354 40.5039 193.408 40.7734C193.463 41.043 193.555 41.2871 193.684 41.5059C193.816 41.7246 193.994 41.9004 194.217 42.0332C194.443 42.1621 194.725 42.2266 195.061 42.2266ZM200.586 42.3438L202.35 36.6602H203.51L200.967 43.9785C200.908 44.1348 200.83 44.3027 200.732 44.4824C200.639 44.666 200.518 44.8398 200.369 45.0039C200.221 45.168 200.041 45.3008 199.83 45.4023C199.623 45.5078 199.375 45.5605 199.086 45.5605C199 45.5605 198.891 45.5488 198.758 45.5254C198.625 45.502 198.531 45.4824 198.477 45.4668L198.471 44.5879C198.502 44.5918 198.551 44.5957 198.617 44.5996C198.688 44.6074 198.736 44.6113 198.764 44.6113C199.01 44.6113 199.219 44.5781 199.391 44.5117C199.562 44.4492 199.707 44.3418 199.824 44.1895C199.945 44.041 200.049 43.8359 200.135 43.5742L200.586 42.3438ZM199.291 36.6602L200.938 41.582L201.219 42.7246L200.439 43.123L198.107 36.6602H199.291ZM210.775 39.6543H208.496V38.7344H210.775C211.217 38.7344 211.574 38.6641 211.848 38.5234C212.121 38.3828 212.32 38.1875 212.445 37.9375C212.574 37.6875 212.639 37.4023 212.639 37.082C212.639 36.7891 212.574 36.5137 212.445 36.2559C212.32 35.998 212.121 35.791 211.848 35.6348C211.574 35.4746 211.217 35.3945 210.775 35.3945H208.76V43H207.629V34.4688H210.775C211.42 34.4688 211.965 34.5801 212.41 34.8027C212.855 35.0254 213.193 35.334 213.424 35.7285C213.654 36.1191 213.77 36.5664 213.77 37.0703C213.77 37.6172 213.654 38.084 213.424 38.4707C213.193 38.8574 212.855 39.1523 212.41 39.3555C211.965 39.5547 211.42 39.6543 210.775 39.6543ZM214.666 39.9004V39.7656C214.666 39.3086 214.732 38.8848 214.865 38.4941C214.998 38.0996 215.189 37.7578 215.439 37.4688C215.689 37.1758 215.992 36.9492 216.348 36.7891C216.703 36.625 217.102 36.543 217.543 36.543C217.988 36.543 218.389 36.625 218.744 36.7891C219.104 36.9492 219.408 37.1758 219.658 37.4688C219.912 37.7578 220.105 38.0996 220.238 38.4941C220.371 38.8848 220.438 39.3086 220.438 39.7656V39.9004C220.438 40.3574 220.371 40.7812 220.238 41.1719C220.105 41.5625 219.912 41.9043 219.658 42.1973C219.408 42.4863 219.105 42.7129 218.75 42.877C218.398 43.0371 218 43.1172 217.555 43.1172C217.109 43.1172 216.709 43.0371 216.354 42.877C215.998 42.7129 215.693 42.4863 215.439 42.1973C215.189 41.9043 214.998 41.5625 214.865 41.1719C214.732 40.7812 214.666 40.3574 214.666 39.9004ZM215.75 39.7656V39.9004C215.75 40.2168 215.787 40.5156 215.861 40.7969C215.936 41.0742 216.047 41.3203 216.195 41.5352C216.348 41.75 216.537 41.9199 216.764 42.0449C216.99 42.166 217.254 42.2266 217.555 42.2266C217.852 42.2266 218.111 42.166 218.334 42.0449C218.561 41.9199 218.748 41.75 218.896 41.5352C219.045 41.3203 219.156 41.0742 219.23 40.7969C219.309 40.5156 219.348 40.2168 219.348 39.9004V39.7656C219.348 39.4531 219.309 39.1582 219.23 38.8809C219.156 38.5996 219.043 38.3516 218.891 38.1367C218.742 37.918 218.555 37.7461 218.328 37.6211C218.105 37.4961 217.844 37.4336 217.543 37.4336C217.246 37.4336 216.984 37.4961 216.758 37.6211C216.535 37.7461 216.348 37.918 216.195 38.1367C216.047 38.3516 215.936 38.5996 215.861 38.8809C215.787 39.1582 215.75 39.4531 215.75 39.7656ZM222.975 34V43H221.885V34H222.975ZM225.893 36.6602V43H224.803V36.6602H225.893ZM224.721 34.9785C224.721 34.8027 224.773 34.6543 224.879 34.5332C224.988 34.4121 225.148 34.3516 225.359 34.3516C225.566 34.3516 225.725 34.4121 225.834 34.5332C225.947 34.6543 226.004 34.8027 226.004 34.9785C226.004 35.1465 225.947 35.291 225.834 35.4121C225.725 35.5293 225.566 35.5879 225.359 35.5879C225.148 35.5879 224.988 35.5293 224.879 35.4121C224.773 35.291 224.721 35.1465 224.721 34.9785ZM230.17 42.2266C230.428 42.2266 230.666 42.1738 230.885 42.0684C231.104 41.9629 231.283 41.8184 231.424 41.6348C231.564 41.4473 231.645 41.2344 231.664 40.9961H232.695C232.676 41.3711 232.549 41.7207 232.314 42.0449C232.084 42.3652 231.781 42.625 231.406 42.8242C231.031 43.0195 230.619 43.1172 230.17 43.1172C229.693 43.1172 229.277 43.0332 228.922 42.8652C228.57 42.6973 228.277 42.4668 228.043 42.1738C227.812 41.8809 227.639 41.5449 227.521 41.166C227.408 40.7832 227.352 40.3789 227.352 39.9531V39.707C227.352 39.2812 227.408 38.8789 227.521 38.5C227.639 38.1172 227.812 37.7793 228.043 37.4863C228.277 37.1934 228.57 36.9629 228.922 36.7949C229.277 36.627 229.693 36.543 230.17 36.543C230.666 36.543 231.1 36.6445 231.471 36.8477C231.842 37.0469 232.133 37.3203 232.344 37.668C232.559 38.0117 232.676 38.4023 232.695 38.8398H231.664C231.645 38.5781 231.57 38.3418 231.441 38.1309C231.316 37.9199 231.145 37.752 230.926 37.627C230.711 37.498 230.459 37.4336 230.17 37.4336C229.838 37.4336 229.559 37.5 229.332 37.6328C229.109 37.7617 228.932 37.9375 228.799 38.1602C228.67 38.3789 228.576 38.623 228.518 38.8926C228.463 39.1582 228.436 39.4297 228.436 39.707V39.9531C228.436 40.2305 228.463 40.5039 228.518 40.7734C228.572 41.043 228.664 41.2871 228.793 41.5059C228.926 41.7246 229.104 41.9004 229.326 42.0332C229.553 42.1621 229.834 42.2266 230.17 42.2266ZM235.695 42.3438L237.459 36.6602H238.619L236.076 43.9785C236.018 44.1348 235.939 44.3027 235.842 44.4824C235.748 44.666 235.627 44.8398 235.479 45.0039C235.33 45.168 235.15 45.3008 234.939 45.4023C234.732 45.5078 234.484 45.5605 234.195 45.5605C234.109 45.5605 234 45.5488 233.867 45.5254C233.734 45.502 233.641 45.4824 233.586 45.4668L233.58 44.5879C233.611 44.5918 233.66 44.5957 233.727 44.5996C233.797 44.6074 233.846 44.6113 233.873 44.6113C234.119 44.6113 234.328 44.5781 234.5 44.5117C234.672 44.4492 234.816 44.3418 234.934 44.1895C235.055 44.041 235.158 43.8359 235.244 43.5742L235.695 42.3438ZM234.4 36.6602L236.047 41.582L236.328 42.7246L235.549 43.123L233.217 36.6602H234.4ZM244.18 41.875L245.809 36.6602H246.523L246.383 37.6973L244.725 43H244.027L244.18 41.875ZM243.084 36.6602L244.473 41.9336L244.572 43H243.84L242 36.6602H243.084ZM248.082 41.8926L249.406 36.6602H250.484L248.645 43H247.918L248.082 41.8926ZM246.682 36.6602L248.275 41.7871L248.457 43H247.766L246.061 37.6855L245.92 36.6602H246.682ZM252.775 36.6602V43H251.686V36.6602H252.775ZM251.604 34.9785C251.604 34.8027 251.656 34.6543 251.762 34.5332C251.871 34.4121 252.031 34.3516 252.242 34.3516C252.449 34.3516 252.607 34.4121 252.717 34.5332C252.83 34.6543 252.887 34.8027 252.887 34.9785C252.887 35.1465 252.83 35.291 252.717 35.4121C252.607 35.5293 252.449 35.5879 252.242 35.5879C252.031 35.5879 251.871 35.5293 251.762 35.4121C251.656 35.291 251.604 35.1465 251.604 34.9785ZM255.693 34V43H254.604V34H255.693ZM258.611 34V43H257.521V34H258.611ZM267.066 41.916V38.6523C267.066 38.4023 267.016 38.1855 266.914 38.002C266.816 37.8145 266.668 37.6699 266.469 37.5684C266.27 37.4668 266.023 37.416 265.73 37.416C265.457 37.416 265.217 37.4629 265.01 37.5566C264.807 37.6504 264.646 37.7734 264.529 37.9258C264.416 38.0781 264.359 38.2422 264.359 38.418H263.275C263.275 38.1914 263.334 37.9668 263.451 37.7441C263.568 37.5215 263.736 37.3203 263.955 37.1406C264.178 36.957 264.443 36.8125 264.752 36.707C265.064 36.5977 265.412 36.543 265.795 36.543C266.256 36.543 266.662 36.6211 267.014 36.7773C267.369 36.9336 267.646 37.1699 267.846 37.4863C268.049 37.7988 268.15 38.1914 268.15 38.6641V41.6172C268.15 41.8281 268.168 42.0527 268.203 42.291C268.242 42.5293 268.299 42.7344 268.373 42.9062V43H267.242C267.188 42.875 267.145 42.709 267.113 42.502C267.082 42.291 267.066 42.0957 267.066 41.916ZM267.254 39.1562L267.266 39.918H266.17C265.861 39.918 265.586 39.9434 265.344 39.9941C265.102 40.041 264.898 40.1133 264.734 40.2109C264.57 40.3086 264.445 40.4316 264.359 40.5801C264.273 40.7246 264.23 40.8945 264.23 41.0898C264.23 41.2891 264.275 41.4707 264.365 41.6348C264.455 41.7988 264.59 41.9297 264.77 42.0273C264.953 42.1211 265.178 42.168 265.443 42.168C265.775 42.168 266.068 42.0977 266.322 41.957C266.576 41.8164 266.777 41.6445 266.926 41.4414C267.078 41.2383 267.16 41.041 267.172 40.8496L267.635 41.3711C267.607 41.5352 267.533 41.7168 267.412 41.916C267.291 42.1152 267.129 42.3066 266.926 42.4902C266.727 42.6699 266.488 42.8203 266.211 42.9414C265.938 43.0586 265.629 43.1172 265.285 43.1172C264.855 43.1172 264.479 43.0332 264.154 42.8652C263.834 42.6973 263.584 42.4727 263.404 42.1914C263.229 41.9062 263.141 41.5879 263.141 41.2363C263.141 40.8965 263.207 40.5977 263.34 40.3398C263.473 40.0781 263.664 39.8613 263.914 39.6895C264.164 39.5137 264.465 39.3809 264.816 39.291C265.168 39.2012 265.561 39.1562 265.994 39.1562H267.254ZM270.939 37.8789V45.4375H269.85V36.6602H270.846L270.939 37.8789ZM275.211 39.7773V39.9004C275.211 40.3613 275.156 40.7891 275.047 41.1836C274.938 41.5742 274.777 41.9141 274.566 42.2031C274.359 42.4922 274.104 42.7168 273.799 42.877C273.494 43.0371 273.145 43.1172 272.75 43.1172C272.348 43.1172 271.992 43.0508 271.684 42.918C271.375 42.7852 271.113 42.5918 270.898 42.3379C270.684 42.084 270.512 41.7793 270.383 41.4238C270.258 41.0684 270.172 40.668 270.125 40.2227V39.5664C270.172 39.0977 270.26 38.6777 270.389 38.3066C270.518 37.9355 270.688 37.6191 270.898 37.3574C271.113 37.0918 271.373 36.8906 271.678 36.7539C271.982 36.6133 272.334 36.543 272.732 36.543C273.131 36.543 273.484 36.6211 273.793 36.7773C274.102 36.9297 274.361 37.1484 274.572 37.4336C274.783 37.7188 274.941 38.0605 275.047 38.459C275.156 38.8535 275.211 39.293 275.211 39.7773ZM274.121 39.9004V39.7773C274.121 39.4609 274.088 39.1641 274.021 38.8867C273.955 38.6055 273.852 38.3594 273.711 38.1484C273.574 37.9336 273.398 37.7656 273.184 37.6445C272.969 37.5195 272.713 37.457 272.416 37.457C272.143 37.457 271.904 37.5039 271.701 37.5977C271.502 37.6914 271.332 37.8184 271.191 37.9785C271.051 38.1348 270.936 38.3145 270.846 38.5176C270.76 38.7168 270.695 38.9238 270.652 39.1387V40.6562C270.73 40.9297 270.84 41.1875 270.98 41.4297C271.121 41.668 271.309 41.8613 271.543 42.0098C271.777 42.1543 272.072 42.2266 272.428 42.2266C272.721 42.2266 272.973 42.166 273.184 42.0449C273.398 41.9199 273.574 41.75 273.711 41.5352C273.852 41.3203 273.955 41.0742 274.021 40.7969C274.088 40.5156 274.121 40.2168 274.121 39.9004ZM277.678 37.8789V45.4375H276.588V36.6602H277.584L277.678 37.8789ZM281.949 39.7773V39.9004C281.949 40.3613 281.895 40.7891 281.785 41.1836C281.676 41.5742 281.516 41.9141 281.305 42.2031C281.098 42.4922 280.842 42.7168 280.537 42.877C280.232 43.0371 279.883 43.1172 279.488 43.1172C279.086 43.1172 278.73 43.0508 278.422 42.918C278.113 42.7852 277.852 42.5918 277.637 42.3379C277.422 42.084 277.25 41.7793 277.121 41.4238C276.996 41.0684 276.91 40.668 276.863 40.2227V39.5664C276.91 39.0977 276.998 38.6777 277.127 38.3066C277.256 37.9355 277.426 37.6191 277.637 37.3574C277.852 37.0918 278.111 36.8906 278.416 36.7539C278.721 36.6133 279.072 36.543 279.471 36.543C279.869 36.543 280.223 36.6211 280.531 36.7773C280.84 36.9297 281.1 37.1484 281.311 37.4336C281.521 37.7188 281.68 38.0605 281.785 38.459C281.895 38.8535 281.949 39.293 281.949 39.7773ZM280.859 39.9004V39.7773C280.859 39.4609 280.826 39.1641 280.76 38.8867C280.693 38.6055 280.59 38.3594 280.449 38.1484C280.312 37.9336 280.137 37.7656 279.922 37.6445C279.707 37.5195 279.451 37.457 279.154 37.457C278.881 37.457 278.643 37.5039 278.439 37.5977C278.24 37.6914 278.07 37.8184 277.93 37.9785C277.789 38.1348 277.674 38.3145 277.584 38.5176C277.498 38.7168 277.434 38.9238 277.391 39.1387V40.6562C277.469 40.9297 277.578 41.1875 277.719 41.4297C277.859 41.668 278.047 41.8613 278.281 42.0098C278.516 42.1543 278.811 42.2266 279.166 42.2266C279.459 42.2266 279.711 42.166 279.922 42.0449C280.137 41.9199 280.312 41.75 280.449 41.5352C280.59 41.3203 280.693 41.0742 280.76 40.7969C280.826 40.5156 280.859 40.2168 280.859 39.9004ZM284.51 34V43H283.42V34H284.51ZM288.031 42.3438L289.795 36.6602H290.955L288.412 43.9785C288.354 44.1348 288.275 44.3027 288.178 44.4824C288.084 44.666 287.963 44.8398 287.814 45.0039C287.666 45.168 287.486 45.3008 287.275 45.4023C287.068 45.5078 286.82 45.5605 286.531 45.5605C286.445 45.5605 286.336 45.5488 286.203 45.5254C286.07 45.502 285.977 45.4824 285.922 45.4668L285.916 44.5879C285.947 44.5918 285.996 44.5957 286.062 44.5996C286.133 44.6074 286.182 44.6113 286.209 44.6113C286.455 44.6113 286.664 44.5781 286.836 44.5117C287.008 44.4492 287.152 44.3418 287.27 44.1895C287.391 44.041 287.494 43.8359 287.58 43.5742L288.031 42.3438ZM286.736 36.6602L288.383 41.582L288.664 42.7246L287.885 43.123L285.553 36.6602H286.736ZM291.318 42.4258C291.318 42.2422 291.375 42.0879 291.488 41.9629C291.605 41.834 291.773 41.7695 291.992 41.7695C292.211 41.7695 292.377 41.834 292.49 41.9629C292.607 42.0879 292.666 42.2422 292.666 42.4258C292.666 42.6055 292.607 42.7578 292.49 42.8828C292.377 43.0078 292.211 43.0703 291.992 43.0703C291.773 43.0703 291.605 43.0078 291.488 42.8828C291.375 42.7578 291.318 42.6055 291.318 42.4258Z" fill="#797979"/>
<path d="M34.3613 44.1719H139.004V44.7578H34.3613V44.1719ZM164.896 44.1719H238.766V44.7578H164.896V44.1719Z" fill="#797979"/>
</svg>
