<svg width="85" height="21" viewBox="0 0 85 21" fill="none" xmlns="http://www.w3.org/2000/svg">
<path opacity="0.75" d="M3 18L82 18" stroke="#00072D" stroke-width="5" stroke-linecap="round"/>
<path opacity="0.75" d="M9.2278 3.27C9.6598 3.186 10.0698 3.124 10.4578 3.084C10.8458 3.044 11.2518 3.024 11.6758 3.024C12.9038 3.024 13.8278 3.27 14.4478 3.762C15.0718 4.254 15.3838 5.016 15.3838 6.048C15.3838 7.052 15.0678 7.812 14.4358 8.328C13.8078 8.84 12.8378 9.096 11.5258 9.096C11.1018 9.096 10.6698 9.076 10.2298 9.036V12H9.2278V3.27ZM11.5378 8.292C12.2138 8.292 12.7598 8.212 13.1758 8.052C13.5958 7.888 13.9038 7.642 14.0998 7.314C14.2958 6.986 14.3938 6.568 14.3938 6.06C14.3938 5.292 14.1758 4.728 13.7398 4.368C13.3038 4.008 12.6398 3.828 11.7478 3.828C11.2278 3.828 10.7218 3.87 10.2298 3.954V8.208C10.6218 8.264 11.0578 8.292 11.5378 8.292ZM19.0353 5.388C19.6313 5.388 20.1213 5.464 20.5053 5.616C20.8893 5.764 21.1773 6.012 21.3693 6.36C21.5653 6.708 21.6633 7.178 21.6633 7.77V12H20.8413L20.7693 11.262H20.7033C20.4793 11.526 20.1873 11.734 19.8273 11.886C19.4673 12.034 19.0853 12.108 18.6813 12.108C18.2493 12.108 17.8773 12.036 17.5653 11.892C17.2573 11.748 17.0213 11.542 16.8573 11.274C16.6933 11.006 16.6113 10.69 16.6113 10.326C16.6113 9.758 16.8073 9.318 17.1993 9.006C17.5913 8.69 18.2173 8.49 19.0773 8.406L20.6973 8.232V7.728C20.6973 7.332 20.6313 7.022 20.4993 6.798C20.3713 6.574 20.1773 6.416 19.9173 6.324C19.6613 6.232 19.3273 6.186 18.9153 6.186C18.6273 6.186 18.3193 6.212 17.9913 6.264C17.6633 6.312 17.3453 6.388 17.0373 6.492V5.694C17.3213 5.594 17.6413 5.518 17.9973 5.466C18.3533 5.414 18.6993 5.388 19.0353 5.388ZM18.9213 11.352C19.2533 11.352 19.5713 11.288 19.8753 11.16C20.1833 11.028 20.4573 10.832 20.6973 10.572V8.886L19.1433 9.054C18.5993 9.118 18.2073 9.246 17.9673 9.438C17.7273 9.626 17.6073 9.894 17.6073 10.242C17.6073 10.598 17.7173 10.872 17.9373 11.064C18.1573 11.256 18.4853 11.352 18.9213 11.352ZM25.4835 12.114C24.7635 12.114 24.1135 12.024 23.5335 11.844V11.058C23.8695 11.158 24.1935 11.23 24.5055 11.274C24.8215 11.318 25.1495 11.34 25.4895 11.34C26.0895 11.34 26.5255 11.248 26.7975 11.064C27.0735 10.88 27.2115 10.61 27.2115 10.254C27.2115 9.962 27.1315 9.74 26.9715 9.588C26.8155 9.432 26.5395 9.318 26.1435 9.246L25.1475 9.06C24.5395 8.944 24.0975 8.742 23.8215 8.454C23.5495 8.162 23.4135 7.772 23.4135 7.284C23.4135 6.908 23.5115 6.578 23.7075 6.294C23.9035 6.01 24.2035 5.788 24.6075 5.628C25.0115 5.468 25.5195 5.388 26.1315 5.388C26.7315 5.388 27.2855 5.46 27.7935 5.604V6.39C27.5135 6.31 27.2415 6.252 26.9775 6.216C26.7135 6.18 26.4375 6.162 26.1495 6.162C25.5135 6.162 25.0555 6.262 24.7755 6.462C24.4995 6.658 24.3615 6.924 24.3615 7.26C24.3615 7.524 24.4375 7.738 24.5895 7.902C24.7455 8.066 25.0135 8.186 25.3935 8.262L26.3835 8.442C27.0035 8.558 27.4535 8.756 27.7335 9.036C28.0175 9.312 28.1595 9.698 28.1595 10.194C28.1595 10.798 27.9315 11.27 27.4755 11.61C27.0235 11.946 26.3595 12.114 25.4835 12.114ZM32.606 11.268C32.834 11.268 33.124 11.232 33.476 11.16V11.988C33.104 12.072 32.742 12.114 32.39 12.114C31.658 12.114 31.1 11.93 30.716 11.562C30.332 11.19 30.14 10.624 30.14 9.864V6.3H28.856V5.49H30.14L30.308 3.12H31.124V5.49H33.374V6.3H31.124V9.702C31.124 10.262 31.246 10.664 31.49 10.908C31.734 11.148 32.106 11.268 32.606 11.268ZM39.285 11.16H44.187V12H38.295V3.12H44.127V3.96H39.285V7.026H43.527V7.866H39.285V11.16ZM50.4724 5.49H51.4564L48.8224 12H47.5684L44.9344 5.49H45.9844L48.2284 11.142L50.4724 5.49ZM57.8589 9.066H53.3889C53.4169 9.858 53.6249 10.432 54.0129 10.788C54.4009 11.14 54.9889 11.316 55.7769 11.316C56.3129 11.316 56.8969 11.222 57.5289 11.034V11.832C56.8969 12.02 56.2749 12.114 55.6629 12.114C54.5749 12.114 53.7569 11.842 53.2089 11.298C52.6649 10.75 52.3929 9.898 52.3929 8.742C52.3929 8.01 52.5029 7.394 52.7229 6.894C52.9469 6.394 53.2669 6.018 53.6829 5.766C54.0989 5.514 54.5989 5.388 55.1829 5.388C56.0469 5.388 56.7089 5.674 57.1689 6.246C57.6289 6.814 57.8589 7.654 57.8589 8.766V9.066ZM55.1769 6.096C54.6049 6.096 54.1669 6.28 53.8629 6.648C53.5629 7.016 53.4049 7.6 53.3889 8.4H56.9229C56.9069 7.6 56.7529 7.016 56.4609 6.648C56.1689 6.28 55.7409 6.096 55.1769 6.096ZM59.5906 5.49H60.4186L60.4906 6.234H60.5566C60.8486 5.962 61.1846 5.754 61.5646 5.61C61.9446 5.462 62.3446 5.388 62.7646 5.388C63.4726 5.388 64.0246 5.584 64.4206 5.976C64.8206 6.364 65.0206 6.978 65.0206 7.818V12H64.0366V7.854C64.0366 7.29 63.9066 6.884 63.6466 6.636C63.3906 6.388 63.0186 6.264 62.5306 6.264C62.1826 6.264 61.8326 6.334 61.4806 6.474C61.1286 6.614 60.8266 6.828 60.5746 7.116V12H59.5906V5.49ZM69.9874 11.268C70.2154 11.268 70.5054 11.232 70.8574 11.16V11.988C70.4854 12.072 70.1234 12.114 69.7714 12.114C69.0394 12.114 68.4814 11.93 68.0974 11.562C67.7134 11.19 67.5214 10.624 67.5214 9.864V6.3H66.2374V5.49H67.5214L67.6894 3.12H68.5054V5.49H70.7554V6.3H68.5054V9.702C68.5054 10.262 68.6274 10.664 68.8714 10.908C69.1154 11.148 69.4874 11.268 69.9874 11.268ZM73.7277 12.114C73.0077 12.114 72.3577 12.024 71.7777 11.844V11.058C72.1137 11.158 72.4377 11.23 72.7497 11.274C73.0657 11.318 73.3937 11.34 73.7337 11.34C74.3337 11.34 74.7697 11.248 75.0417 11.064C75.3177 10.88 75.4557 10.61 75.4557 10.254C75.4557 9.962 75.3757 9.74 75.2157 9.588C75.0597 9.432 74.7837 9.318 74.3877 9.246L73.3917 9.06C72.7837 8.944 72.3417 8.742 72.0657 8.454C71.7937 8.162 71.6577 7.772 71.6577 7.284C71.6577 6.908 71.7557 6.578 71.9517 6.294C72.1477 6.01 72.4477 5.788 72.8517 5.628C73.2557 5.468 73.7637 5.388 74.3757 5.388C74.9757 5.388 75.5297 5.46 76.0377 5.604V6.39C75.7577 6.31 75.4857 6.252 75.2217 6.216C74.9577 6.18 74.6817 6.162 74.3937 6.162C73.7577 6.162 73.2997 6.262 73.0197 6.462C72.7437 6.658 72.6057 6.924 72.6057 7.26C72.6057 7.524 72.6817 7.738 72.8337 7.902C72.9897 8.066 73.2577 8.186 73.6377 8.262L74.6277 8.442C75.2477 8.558 75.6977 8.756 75.9777 9.036C76.2617 9.312 76.4037 9.698 76.4037 10.194C76.4037 10.798 76.1757 11.27 75.7197 11.61C75.2677 11.946 74.6037 12.114 73.7277 12.114Z" fill="#00072D"/>
</svg>
