<svg width="23" height="23" viewBox="0 0 23 23" fill="none" xmlns="http://www.w3.org/2000/svg">
<path d="M7.67908 12.514H5.97262C5.65834 12.514 5.4038 12.7686 5.4038 13.0829V19.9087C5.4038 20.223 5.65834 20.4775 5.97262 20.4775H7.67908C7.99335 20.4775 8.2479 20.223 8.2479 19.9087V13.0829C8.2479 12.7686 7.99335 12.514 7.67908 12.514ZM3.12851 15.927H1.42205C1.10778 15.927 0.853233 16.1815 0.853233 16.4958V19.9087C0.853233 20.223 1.10778 20.4775 1.42205 20.4775H3.12851C3.44279 20.4775 3.69733 20.223 3.69733 19.9087V16.4958C3.69733 16.1815 3.44279 15.927 3.12851 15.927ZM12.2296 9.10113H10.5232C10.2089 9.10113 9.95436 9.35567 9.95436 9.66995V19.9087C9.95436 20.223 10.2089 20.4775 10.5232 20.4775H12.2296C12.5439 20.4775 12.7985 20.223 12.7985 19.9087V9.66995C12.7985 9.35567 12.5439 9.10113 12.2296 9.10113ZM16.7802 5.68821H15.0737C14.7595 5.68821 14.5049 5.94275 14.5049 6.25703V19.9087C14.5049 20.223 14.7595 20.4775 15.0737 20.4775H16.7802C17.0945 20.4775 17.349 20.223 17.349 19.9087V6.25703C17.349 5.94275 17.0945 5.68821 16.7802 5.68821ZM21.3308 2.27528H19.6243C19.31 2.27528 19.0555 2.52983 19.0555 2.8441V19.9087C19.0555 20.223 19.31 20.4775 19.6243 20.4775H21.3308C21.645 20.4775 21.8996 20.223 21.8996 19.9087V2.8441C21.8996 2.52983 21.645 2.27528 21.3308 2.27528Z" fill="black"/>
</svg>
