<svg width="157" height="143" viewBox="0 0 157 143" fill="none" xmlns="http://www.w3.org/2000/svg">
<g clip-path="url(#clip0_28_126)">
<path d="M113.26 26.4756H101.761V4.97948L113.26 9.27871V26.4756Z" fill="#2F2E41"/>
<path d="M115.301 135.618L112.928 135.684L111.605 123.194L115.107 123.097L115.301 135.618Z" fill="#A0616A"/>
<path d="M107.16 141.418C107.16 141.887 107.444 142.268 107.795 142.268H112.505C112.505 142.268 112.969 140.085 114.859 139.146L114.989 142.268H117.419L117.125 137.248C117.125 137.248 117.775 134.562 116.425 133.189C115.075 131.816 116.168 132.007 116.168 132.007L115.637 128.9L111.965 129.406L111.938 134.283L110.157 139.125L107.543 140.637C107.31 140.772 107.16 141.079 107.16 141.418Z" fill="#2F2E41"/>
<path d="M103.139 135.618L100.766 135.684L99.4436 123.194L102.946 123.097L103.139 135.618Z" fill="#A0616A"/>
<path d="M94.9979 141.418C94.9979 141.887 95.2824 142.268 95.6333 142.268H100.344C100.344 142.268 100.807 140.085 102.697 139.146L102.827 142.268H105.257L104.963 137.248C104.963 137.248 105.613 134.562 104.263 133.189C102.913 131.816 104.006 132.007 104.006 132.007L103.475 128.9L99.8036 129.406L99.7766 134.283L97.9947 139.125L95.3811 140.637C95.1485 140.772 94.9979 141.079 94.9979 141.418Z" fill="#2F2E41"/>
<path d="M113.994 49.9781L98.825 60.5828L95.3997 76.9199L97.1123 127.364H104.624L106.287 78.7829L109.617 127.364H117.246L119.175 72.8092C119.707 68.8445 119.287 64.7848 117.964 61.0831L113.994 49.9781Z" fill="#2F2E41"/>
<path d="M110.569 17.5905L104.207 17.0173L102.495 21.0299L97.6017 22.463L96.3784 40.2331C98.7983 47.5987 100.317 54.6373 98.8249 60.5828L117.419 59.4364L114.315 49.6023C114.315 49.6023 114.238 45.9654 115.951 41.093C117.664 36.2205 114.972 23.6095 114.972 23.6095L111.058 22.463L110.569 17.5905Z" fill="#0E6BA8"/>
<path d="M67.7374 24.5031C68.3568 24.5256 68.9292 24.3823 69.3794 24.1257L75.2684 24.7765L75.4508 21.4846L69.4573 21.1789C69.0216 20.8901 68.4579 20.7056 67.8385 20.6831C66.4235 20.6317 65.2538 21.4452 65.2259 22.5001C65.198 23.555 66.3224 24.4517 67.7374 24.5031Z" fill="#A0616A"/>
<path d="M102.573 34.5524C102.573 34.5524 102.365 24.0656 100.402 22.4916C99.5922 21.8425 87.1421 21.695 86.6886 21.6399C83.8915 21.3004 81.9011 19.9994 79.546 19.8568C73.8067 19.5093 70.9052 21.1409 70.9052 21.1409L70.8039 24.5078L102.573 34.5524Z" fill="#0E6BA8"/>
<path d="M106.846 16.7456C109.651 16.7456 111.925 14.0816 111.925 10.7953C111.925 7.50899 109.651 4.84493 106.846 4.84493C104.041 4.84493 101.767 7.50899 101.767 10.7953C101.767 14.0816 104.041 16.7456 106.846 16.7456Z" fill="#A0616A"/>
<path d="M105.306 1.93487C104.213 2.74165 103.413 2.16404 102.633 2.57093C101.108 3.36592 98.5339 8.94965 98.766 11.2873C99.0947 14.5981 100.133 14.7344 100.102 17.1098C100.053 20.924 99.794 20.9082 100.461 22.24C101.202 23.7213 105.403 23.3191 106.183 21.3104C106.337 20.9141 104.628 21.0699 102.739 15.8709C101.792 13.2619 102.414 10.8846 102.739 9.85194C102.816 9.61016 102.851 7.89366 103.013 8.08416C104.439 9.7545 105.238 8.53349 106.099 8.39337C107.866 8.1058 109.197 9.77574 109.733 9.17622C110.132 8.73009 109.623 7.55055 109.816 7.46374C110.023 7.37118 110.706 8.66518 111.153 10.0569C111.441 10.9544 111.585 11.4032 111.57 11.9162C111.524 13.5004 111.18 17.9923 110.569 19.3102C109.249 22.1564 110.911 23.2303 111.946 23.0229C112.783 22.8552 116.483 23.5152 116.685 23.0362C116.865 22.6095 116.453 18.2204 116.02 14.14C115.5 9.23557 113.414 4.72867 110.144 1.60659C109.952 1.4235 109.809 1.29788 109.733 1.24988C109.552 1.13619 107.684 0.000147462 106.308 0.907387C105.801 1.24138 105.884 1.50782 105.306 1.93487Z" fill="#2F2E41"/>
<path d="M41.8567 140.263L39.0385 140.263L37.6979 127.529L41.8572 127.529L41.8567 140.263Z" fill="#FFB6B6"/>
<path d="M32.2012 140.188C32.1135 140.361 32.0672 140.92 32.0672 141.122C32.0672 141.74 32.4954 142.242 33.0237 142.242H41.7512C42.1116 142.242 42.4038 141.9 42.4038 141.478V141.052C42.4038 141.052 42.8355 139.773 41.9466 138.196C41.9466 138.196 40.8419 139.43 39.1911 137.497L38.7043 136.463L35.1805 139.483L33.2273 139.764C32.7999 139.826 32.4211 139.755 32.2012 140.188Z" fill="#2F2E41"/>
<path d="M53.7385 140.263L50.9204 140.263L49.5798 127.529L53.7391 127.529L53.7385 140.263Z" fill="#FFB6B6"/>
<path d="M44.0831 140.188C43.9954 140.361 43.9491 140.92 43.9491 141.122C43.9491 141.74 44.3773 142.242 44.9056 142.242H53.6331C53.9935 142.242 54.2857 141.9 54.2857 141.478V141.052C54.2857 141.052 54.7174 139.773 53.8285 138.196C53.8285 138.196 52.7238 139.43 51.073 137.497L50.5861 136.463L47.0623 139.483L45.1091 139.764C44.6818 139.826 44.3029 139.755 44.0831 140.188Z" fill="#2F2E41"/>
<path d="M54.2974 59.8647L33.623 59.5863L31.4842 75.4545L36.7123 130.297H43.5663L45.1484 79.2128L48 131.272H55.0178L58.2185 71.9747L54.2974 59.8647Z" fill="#2F2E41"/>
<path d="M141.946 138.076C142.437 138.112 142.708 137.398 142.337 136.981L142.3 136.809C142.305 136.795 142.309 136.781 142.314 136.768C142.811 135.381 144.494 135.39 144.986 136.779C145.423 138.012 145.979 139.247 146.116 140.55C146.177 141.126 146.15 141.712 146.041 142.276C147.064 139.657 147.603 136.796 147.603 133.919C147.603 133.196 147.569 132.473 147.5 131.752C147.444 131.163 147.365 130.576 147.264 129.996C146.716 126.856 145.53 123.866 143.818 121.368C142.996 120.842 142.309 120.018 141.895 119.031C141.746 118.675 141.63 118.292 141.574 117.902C141.668 117.916 141.927 116.246 141.857 116.143C141.987 115.911 142.221 115.796 142.363 115.57C143.072 114.444 144.048 114.64 144.558 116.17C145.647 116.814 145.658 117.882 144.989 118.909C144.564 119.562 144.506 120.446 144.133 121.145C144.171 121.203 144.211 121.259 144.25 121.316C144.953 122.374 145.562 123.51 146.075 124.704C145.93 123.377 146.144 121.778 146.509 120.748C146.924 119.574 147.703 118.585 148.389 117.57C149.212 116.351 150.901 116.883 151.046 118.429C151.048 118.444 151.049 118.458 151.051 118.473C150.949 118.541 150.849 118.612 150.751 118.688C150.196 119.119 150.388 120.128 151.046 120.247L151.061 120.25C151.024 120.68 150.962 121.106 150.869 121.525C151.749 125.51 149.85 126.962 147.138 127.027C147.078 127.063 147.02 127.099 146.96 127.133C147.235 128.039 147.454 128.969 147.617 129.911C147.763 130.744 147.864 131.585 147.921 132.43C147.992 133.496 147.985 134.568 147.909 135.633L147.913 135.595C148.108 134.422 148.652 133.327 149.44 132.569C150.616 131.438 152.276 131.021 153.544 130.112C154.154 129.674 154.937 130.24 154.83 131.069L154.825 131.109C154.636 131.198 154.452 131.303 154.274 131.42C154.172 131.487 154.072 131.558 153.975 131.634C153.419 132.065 153.611 133.074 154.27 133.193L154.285 133.196C154.295 133.198 154.304 133.2 154.315 133.202C153.991 134.102 153.54 134.939 152.975 135.66C152.425 139.139 150.063 139.469 147.536 138.456H147.534C147.258 139.865 146.854 141.243 146.335 142.555H142.053C142.038 142.499 142.024 142.442 142.01 142.386C142.406 142.415 142.805 142.388 143.195 142.303C142.877 141.847 142.56 141.386 142.242 140.93C142.234 140.921 142.228 140.912 142.222 140.903C142.061 140.669 141.898 140.437 141.737 140.203L141.737 140.203C141.727 139.485 141.8 138.77 141.946 138.076Z" fill="#F2F2F2"/>
<path d="M0 142.669C0 142.852 0.125955 143 0.282803 143H156.717C156.874 143 157 142.852 157 142.669C157 142.485 156.874 142.337 156.717 142.337H0.282803C0.125955 142.337 0 142.485 0 142.669Z" fill="#CCCCCC"/>
<path d="M47.2871 18.2454H39.9288L38.4945 21.5861L31.4842 25.3575L33.9794 46.9196L32.0783 61.1174H55.8262L53.7033 44.6924L56.555 24.9268L48.713 21.3077L47.2871 18.2454Z" fill="#E6E6E6"/>
<path d="M71.9178 70.4943C71.5968 69.7272 71.4504 68.9389 71.467 68.249L68.0158 61.1682L70.9399 59.343L74.126 66.7222C74.6016 67.1295 75.0438 67.748 75.3647 68.515C76.0979 70.2673 75.9206 72.1309 74.9687 72.6775C74.0169 73.224 72.6509 72.2466 71.9178 70.4943Z" fill="#FFB6B6"/>
<path d="M49.1692 23.9766C49.1692 23.9766 51.4974 21.1703 54.1092 23.1231C56.7209 25.076 66.2484 45.0599 66.2484 45.0599L73.5978 62.24L68.4102 65.0713L62.1516 48.6199L49.0078 32.0497L49.1692 23.9766Z" fill="#E6E6E6"/>
<path d="M43.2963 16.617C46.966 16.617 49.9408 13.132 49.9408 8.83309C49.9408 4.53414 46.966 1.04915 43.2963 1.04915C39.6267 1.04915 36.6519 4.53414 36.6519 8.83309C36.6519 13.132 39.6267 16.617 43.2963 16.617Z" fill="#FFB6B6"/>
<path d="M41.2111 15.0977C41.2419 15.8603 41.2573 16.2416 41.1572 16.2876C40.8562 16.4264 36.9797 13.7444 36.5232 11.959C36.3103 11.1264 36.4901 11.1098 36.3347 8.74079C36.1861 6.47504 36.0195 6.45699 36.2165 5.89643C36.4354 5.27339 37.1041 4.50577 38.4414 2.97051C38.947 2.39002 39.1999 2.09977 39.3595 1.94971C39.8432 1.49489 41.6452 -0.199485 43.2976 0.019421C43.9902 0.111181 43.8718 0.435138 46.4593 2.07893C46.6822 2.22051 46.9811 2.40741 47.3938 2.622C48.3976 3.14391 49.0204 3.27921 49.3482 3.42475C51.3351 4.30682 50.752 9.22034 50.5813 9.2485C50.519 9.25877 50.5021 8.62162 50.1761 8.56894C49.8826 8.52152 49.6957 9.00535 49.429 9.02295C48.7006 9.07104 49.5095 8.25414 47.7267 7.34684C47.0336 6.99413 48.9621 8.58444 47.1263 8.55863C44.2553 8.51826 46.0915 8.73232 45.0012 9.40325C44.2061 9.89255 41.0074 7.19981 41.1374 8.06024C41.229 8.66713 41.605 8.84186 41.5507 9.52175C41.4982 10.1804 41.0756 10.8904 40.7029 10.9165C40.3594 10.9405 40.1711 10.3757 40.0565 10.4298C39.9319 10.4886 40.0688 11.1973 40.3376 11.9254C40.6788 12.8498 40.8824 12.857 41.0624 13.5679C41.1659 13.9768 41.181 14.3504 41.2111 15.0977Z" fill="#2F2E41"/>
<path d="M93.5804 68.2087L50.7681 55.4482C48.0314 54.6325 46.3713 51.3605 47.0676 48.1544L52.3937 23.6308C53.09 20.4247 55.883 18.48 58.6198 19.2957L101.432 32.0562C104.169 32.8719 105.829 36.1439 105.133 39.35L99.8064 63.8736C99.1101 67.0797 96.3171 69.0244 93.5804 68.2087Z" fill="white"/>
<path d="M93.5803 68.2087L50.7681 55.4482C49.3997 55.0403 48.3005 54.0184 47.5153 52.6633C46.3729 50.6918 46.0748 48.2097 46.5763 45.9004L51.0426 25.3356C51.5441 23.0263 52.8186 21.0129 54.6264 19.9207C55.869 19.1701 57.2514 18.8878 58.6198 19.2957L101.432 32.0562C104.173 32.8732 105.83 36.1388 105.132 39.35L99.8064 63.8736C99.1101 67.0797 96.3171 69.0244 93.5803 68.2087ZM58.5026 19.8353C56.0158 19.0941 56.6658 21.7325 56.0331 24.6457C52.9462 38.8587 59.3308 53.553 70.9586 58.9873C77.2354 61.9208 82.4564 64.3186 82.4564 64.3186C91.1514 66.9102 99.9936 60.7536 102.206 50.5674L104.672 39.2127C105.305 36.2995 103.802 33.337 101.315 32.5958L58.5026 19.8353Z" fill="#3F3D56"/>
<path d="M78.5342 39.1607C78.2358 36.2876 76.0058 34.2418 73.5533 34.5913C71.1241 34.9375 69.3889 37.504 69.6461 40.3448L69.575 40.3549L70.6554 50.7593L78.8278 49.5947C79.0861 49.611 79.3488 49.6029 79.6145 49.5651C82.067 49.2155 83.8133 46.6031 83.515 43.73C83.2167 40.8569 80.9867 38.8112 78.5342 39.1607Z" fill="#0E6BA8"/>
<path d="M62.8693 137.447C62.5232 136.403 61.5196 135.884 60.6277 136.29C59.7442 136.691 59.3022 137.849 59.6303 138.886L59.6044 138.898L60.8579 142.681L63.8299 141.33C63.9282 141.307 64.0261 141.275 64.1227 141.231C65.0146 140.826 65.4571 139.65 65.1109 138.605C64.7648 137.56 63.7612 137.042 62.8693 137.447Z" fill="#E6E6E6"/>
<path d="M129.408 137.447C129.062 136.403 128.058 135.884 127.166 136.29C126.283 136.691 125.841 137.849 126.169 138.886L126.143 138.898L127.396 142.681L130.368 141.33C130.467 141.307 130.565 141.275 130.661 141.231C131.553 140.826 131.996 139.65 131.649 138.605C131.303 137.56 130.3 137.042 129.408 137.447Z" fill="#E6E6E6"/>
<path d="M75.0249 69.1481C78.1748 69.1481 80.7282 66.1568 80.7282 62.4668C80.7282 58.7768 78.1748 55.7854 75.0249 55.7854C71.8751 55.7854 69.3216 58.7768 69.3216 62.4668C69.3216 66.1568 71.8751 69.1481 75.0249 69.1481Z" fill="#0E6BA8"/>
<path d="M49.0986 35.3703C48.4866 35.8347 47.8358 36.0988 47.2491 36.1615L41.6579 41.0175L39.7633 37.8331L45.6391 33.25C45.9277 32.6484 46.3994 32.0605 47.0113 31.5961C48.4094 30.535 50.0099 30.5197 50.5863 31.562C51.1627 32.6042 50.4966 34.3092 49.0986 35.3703Z" fill="#FFB6B6"/>
<path d="M36.003 24.0386C36.003 24.0386 31.7255 23.4818 31.0126 25.4305C30.2997 27.3792 28.8738 46.8665 28.8738 46.8665L31.2502 51.5992L46.8342 37.782L43.6783 34.0849L36.9994 37.782L36.003 24.0386Z" fill="#E6E6E6"/>
<path d="M97.9584 30.3355C98.4667 30.9479 99.0509 31.3751 99.611 31.5893L104.139 37.782L106.591 35.1719L101.734 29.171C101.567 28.5092 101.219 27.813 100.711 27.2006C99.5495 25.8014 97.992 25.369 97.232 26.2346C96.472 27.1003 96.7972 28.9363 97.9584 30.3355Z" fill="#A0616A"/>
<path d="M112.879 22.7049C112.879 22.7049 117.155 23.278 117.48 25.3638C117.804 27.4496 115.49 46.8195 115.49 46.8195L112.273 50.8133L99.7074 33.2774L103.487 30.4965L109.295 35.8433L112.879 22.7049Z" fill="#0E6BA8"/>
<path d="M55.2251 45.1945C57.1943 45.1945 58.7907 43.3244 58.7907 41.0175C58.7907 38.7105 57.1943 36.8404 55.2251 36.8404C53.2558 36.8404 51.6594 38.7105 51.6594 41.0175C51.6594 43.3244 53.2558 45.1945 55.2251 45.1945Z" fill="#E6E6E6"/>
</g>
<defs>
<clipPath id="clip0_28_126">
<rect width="157" height="143" fill="white"/>
</clipPath>
</defs>
</svg>
