<svg width="103" height="21" viewBox="0 0 103 21" fill="none" xmlns="http://www.w3.org/2000/svg">
<path opacity="0.75" d="M12 18L91 18" stroke="#00072D" stroke-width="5" stroke-linecap="round"/>
<path opacity="0.75" d="M4.92031 12.114C3.72831 12.114 2.84831 11.824 2.28031 11.244C1.71631 10.664 1.43431 9.756 1.43431 8.52V3.12H2.43031V8.634C2.43031 9.55 2.63031 10.216 3.03031 10.632C3.43431 11.048 4.06431 11.256 4.92031 11.256C5.77631 11.256 6.40431 11.048 6.80431 10.632C7.20831 10.216 7.41031 9.55 7.41031 8.634V3.12H8.38831V8.52C8.38831 9.348 8.26431 10.026 8.01631 10.554C7.76831 11.082 7.38831 11.474 6.87631 11.73C6.36831 11.986 5.71631 12.114 4.92031 12.114ZM10.6435 5.49H11.4835L11.5555 6.24H11.6155C11.8395 5.972 12.1195 5.764 12.4555 5.616C12.7955 5.464 13.1675 5.388 13.5715 5.388C14.0995 5.388 14.5675 5.5 14.9755 5.724C15.3875 5.944 15.7115 6.294 15.9475 6.774C16.1875 7.254 16.3075 7.87 16.3075 8.622C16.3075 9.782 16.0155 10.654 15.4315 11.238C14.8515 11.822 13.9895 12.114 12.8455 12.114C12.5255 12.114 12.1195 12.08 11.6275 12.012V14.64H10.6435V5.49ZM12.8515 11.31C13.6835 11.31 14.2995 11.102 14.6995 10.686C15.1035 10.27 15.3055 9.61 15.3055 8.706C15.3055 7.818 15.1315 7.184 14.7835 6.804C14.4395 6.42 13.9595 6.228 13.3435 6.228C13.0075 6.228 12.6915 6.296 12.3955 6.432C12.0995 6.564 11.8435 6.772 11.6275 7.056V11.172C11.7995 11.216 11.9935 11.25 12.2095 11.274C12.4255 11.298 12.6395 11.31 12.8515 11.31ZM20.884 12.114C19.892 12.114 19.136 11.838 18.616 11.286C18.096 10.73 17.836 9.884 17.836 8.748C17.836 7.612 18.114 6.768 18.67 6.216C19.23 5.664 20.048 5.388 21.124 5.388C21.66 5.388 22.146 5.45 22.582 5.574V6.408C22.118 6.284 21.666 6.222 21.226 6.222C20.418 6.222 19.82 6.42 19.432 6.816C19.048 7.208 18.856 7.844 18.856 8.724C18.856 9.62 19.036 10.27 19.396 10.674C19.756 11.078 20.298 11.28 21.022 11.28C21.474 11.28 21.994 11.184 22.582 10.992V11.826C22.05 12.018 21.484 12.114 20.884 12.114ZM26.5767 12.114C25.6527 12.114 24.9307 11.836 24.4107 11.28C23.8907 10.724 23.6307 9.88 23.6307 8.748C23.6307 7.624 23.8907 6.784 24.4107 6.228C24.9307 5.668 25.6527 5.388 26.5767 5.388C27.5087 5.388 28.2307 5.666 28.7427 6.222C29.2587 6.774 29.5167 7.616 29.5167 8.748C29.5167 9.5 29.3967 10.128 29.1567 10.632C28.9167 11.132 28.5767 11.504 28.1367 11.748C27.6967 11.992 27.1767 12.114 26.5767 12.114ZM26.5767 11.316C27.2007 11.316 27.6787 11.116 28.0107 10.716C28.3467 10.316 28.5147 9.664 28.5147 8.76C28.5147 7.844 28.3487 7.186 28.0167 6.786C27.6847 6.386 27.2047 6.186 26.5767 6.186C25.9487 6.186 25.4667 6.386 25.1307 6.786C24.7987 7.182 24.6327 7.832 24.6327 8.736C24.6327 9.652 24.7987 10.312 25.1307 10.716C25.4667 11.116 25.9487 11.316 26.5767 11.316ZM38.1417 5.388C38.7897 5.388 39.2977 5.582 39.6657 5.97C40.0337 6.354 40.2177 6.962 40.2177 7.794V12H39.2337V7.842C39.2337 7.282 39.1177 6.88 38.8857 6.636C38.6537 6.388 38.3277 6.264 37.9077 6.264C37.6077 6.264 37.3097 6.33 37.0137 6.462C36.7177 6.594 36.4597 6.802 36.2397 7.086C36.2757 7.29 36.2937 7.518 36.2937 7.77V12H35.3277V7.842C35.3277 7.278 35.2157 6.874 34.9917 6.63C34.7677 6.386 34.4497 6.264 34.0377 6.264C33.7217 6.264 33.4137 6.338 33.1137 6.486C32.8137 6.63 32.5557 6.85 32.3397 7.146V12H31.3557V5.49H32.1837L32.2557 6.24H32.3217C32.5777 5.964 32.8757 5.754 33.2157 5.61C33.5557 5.462 33.9177 5.388 34.3017 5.388C35.1217 5.388 35.6917 5.704 36.0117 6.336C36.3197 6.008 36.6577 5.768 37.0257 5.616C37.3937 5.464 37.7657 5.388 38.1417 5.388ZM42.33 12V5.49H43.32V12H42.33ZM42.828 4.086C42.608 4.086 42.438 4.032 42.318 3.924C42.202 3.816 42.144 3.666 42.144 3.474C42.144 3.278 42.202 3.126 42.318 3.018C42.438 2.91 42.608 2.856 42.828 2.856C43.048 2.856 43.216 2.91 43.332 3.018C43.452 3.126 43.512 3.278 43.512 3.474C43.512 3.666 43.452 3.816 43.332 3.924C43.216 4.032 43.048 4.086 42.828 4.086ZM45.5114 5.49H46.3394L46.4114 6.234H46.4774C46.7694 5.962 47.1054 5.754 47.4854 5.61C47.8654 5.462 48.2654 5.388 48.6854 5.388C49.3934 5.388 49.9454 5.584 50.3414 5.976C50.7414 6.364 50.9414 6.978 50.9414 7.818V12H49.9574V7.854C49.9574 7.29 49.8274 6.884 49.5674 6.636C49.3114 6.388 48.9394 6.264 48.4514 6.264C48.1034 6.264 47.7534 6.334 47.4014 6.474C47.0494 6.614 46.7474 6.828 46.4954 7.116V12H45.5114V5.49ZM55.2002 14.76C54.8682 14.76 54.5162 14.732 54.1442 14.676C53.7762 14.624 53.4362 14.548 53.1242 14.448V13.626C53.8362 13.846 54.5102 13.956 55.1462 13.956C55.6662 13.956 56.0882 13.886 56.4122 13.746C56.7362 13.61 56.9762 13.388 57.1322 13.08C57.2922 12.772 57.3722 12.36 57.3722 11.844V11.274H57.3182C57.0822 11.53 56.7962 11.73 56.4602 11.874C56.1282 12.014 55.7582 12.084 55.3502 12.084C54.8422 12.084 54.3882 11.974 53.9882 11.754C53.5882 11.53 53.2722 11.178 53.0402 10.698C52.8082 10.218 52.6922 9.61 52.6922 8.874C52.6922 7.718 52.9842 6.848 53.5682 6.264C54.1522 5.68 55.0202 5.388 56.1722 5.388C56.5442 5.388 56.9182 5.416 57.2942 5.472C57.6702 5.524 58.0242 5.6 58.3562 5.7V11.688C58.3562 12.412 58.2402 13 58.0082 13.452C57.7762 13.904 57.4282 14.234 56.9642 14.442C56.5002 14.654 55.9122 14.76 55.2002 14.76ZM55.6382 11.244C55.9742 11.244 56.2942 11.182 56.5982 11.058C56.9022 10.93 57.1602 10.736 57.3722 10.476V6.342C56.9842 6.238 56.5542 6.186 56.0822 6.186C55.2862 6.186 54.6882 6.396 54.2882 6.816C53.8922 7.236 53.6942 7.892 53.6942 8.784C53.6942 9.664 53.8662 10.294 54.2102 10.674C54.5542 11.054 55.0302 11.244 55.6382 11.244ZM65.0365 11.16H69.9385V12H64.0465V3.12H69.8785V3.96H65.0365V7.026H69.2785V7.866H65.0365V11.16ZM76.2238 5.49H77.2078L74.5738 12H73.3198L70.6858 5.49H71.7358L73.9798 11.142L76.2238 5.49ZM83.6104 9.066H79.1404C79.1684 9.858 79.3764 10.432 79.7644 10.788C80.1524 11.14 80.7404 11.316 81.5284 11.316C82.0644 11.316 82.6484 11.222 83.2804 11.034V11.832C82.6484 12.02 82.0264 12.114 81.4144 12.114C80.3264 12.114 79.5084 11.842 78.9604 11.298C78.4164 10.75 78.1444 9.898 78.1444 8.742C78.1444 8.01 78.2544 7.394 78.4744 6.894C78.6984 6.394 79.0184 6.018 79.4344 5.766C79.8504 5.514 80.3504 5.388 80.9344 5.388C81.7984 5.388 82.4604 5.674 82.9204 6.246C83.3804 6.814 83.6104 7.654 83.6104 8.766V9.066ZM80.9284 6.096C80.3564 6.096 79.9184 6.28 79.6144 6.648C79.3144 7.016 79.1564 7.6 79.1404 8.4H82.6744C82.6584 7.6 82.5044 7.016 82.2124 6.648C81.9204 6.28 81.4924 6.096 80.9284 6.096ZM85.3421 5.49H86.1701L86.2421 6.234H86.3081C86.6001 5.962 86.9361 5.754 87.3161 5.61C87.6961 5.462 88.0961 5.388 88.5161 5.388C89.2241 5.388 89.7761 5.584 90.1721 5.976C90.5721 6.364 90.7721 6.978 90.7721 7.818V12H89.7881V7.854C89.7881 7.29 89.6581 6.884 89.3981 6.636C89.1421 6.388 88.7701 6.264 88.2821 6.264C87.9341 6.264 87.5841 6.334 87.2321 6.474C86.8801 6.614 86.5781 6.828 86.3261 7.116V12H85.3421V5.49ZM95.7388 11.268C95.9668 11.268 96.2568 11.232 96.6088 11.16V11.988C96.2368 12.072 95.8748 12.114 95.5228 12.114C94.7908 12.114 94.2328 11.93 93.8488 11.562C93.4648 11.19 93.2728 10.624 93.2728 9.864V6.3H91.9888V5.49H93.2728L93.4408 3.12H94.2568V5.49H96.5068V6.3H94.2568V9.702C94.2568 10.262 94.3788 10.664 94.6228 10.908C94.8668 11.148 95.2388 11.268 95.7388 11.268ZM99.4792 12.114C98.7592 12.114 98.1092 12.024 97.5292 11.844V11.058C97.8652 11.158 98.1892 11.23 98.5012 11.274C98.8172 11.318 99.1452 11.34 99.4852 11.34C100.085 11.34 100.521 11.248 100.793 11.064C101.069 10.88 101.207 10.61 101.207 10.254C101.207 9.962 101.127 9.74 100.967 9.588C100.811 9.432 100.535 9.318 100.139 9.246L99.1432 9.06C98.5352 8.944 98.0932 8.742 97.8172 8.454C97.5452 8.162 97.4092 7.772 97.4092 7.284C97.4092 6.908 97.5072 6.578 97.7032 6.294C97.8992 6.01 98.1992 5.788 98.6032 5.628C99.0072 5.468 99.5152 5.388 100.127 5.388C100.727 5.388 101.281 5.46 101.789 5.604V6.39C101.509 6.31 101.237 6.252 100.973 6.216C100.709 6.18 100.433 6.162 100.145 6.162C99.5092 6.162 99.0512 6.262 98.7712 6.462C98.4952 6.658 98.3572 6.924 98.3572 7.26C98.3572 7.524 98.4332 7.738 98.5852 7.902C98.7412 8.066 99.0092 8.186 99.3892 8.262L100.379 8.442C100.999 8.558 101.449 8.756 101.729 9.036C102.013 9.312 102.155 9.698 102.155 10.194C102.155 10.798 101.927 11.27 101.471 11.61C101.019 11.946 100.355 12.114 99.4792 12.114Z" fill="#00072D"/>
</svg>
