<svg width="23" height="23" viewBox="0 0 23 23" fill="none" xmlns="http://www.w3.org/2000/svg">
<g clip-path="url(#clip0_29_2)">
<path d="M22.5718 7.09887C16.2732 1.27309 6.47705 1.27522 0.180926 7.09887C-0.0558457 7.31787 -0.0604674 7.68867 0.168483 7.91584L1.38576 9.12352C1.60404 9.34038 1.95529 9.345 2.18211 9.13702C7.36975 4.38453 15.3823 4.38347 20.571 9.13702C20.7978 9.345 21.1491 9.34002 21.3673 9.12352L22.5846 7.91584C22.8132 7.68867 22.8086 7.31787 22.5718 7.09887ZM11.3764 14.1067C10.1196 14.1067 9.10109 15.1253 9.10109 16.382C9.10109 17.6388 10.1196 18.6573 11.3764 18.6573C12.6331 18.6573 13.6517 17.6388 13.6517 16.382C13.6517 15.1253 12.6331 14.1067 11.3764 14.1067ZM18.5815 11.135C14.4839 7.51127 8.26422 7.51518 4.1712 11.135C3.9259 11.3519 3.91807 11.7284 4.15094 11.958L5.37532 13.1664C5.58863 13.3769 5.93205 13.3911 6.15923 13.1948C9.14375 10.6149 13.6157 10.6206 16.5932 13.1948C16.8203 13.3911 17.1638 13.3772 17.3771 13.1664L18.6015 11.958C18.8347 11.7284 18.8265 11.3515 18.5815 11.135Z" fill="black"/>
</g>
<defs>
<clipPath id="clip0_29_2">
<rect width="22.7528" height="22.7528" fill="white"/>
</clipPath>
</defs>
</svg>
