<svg width="85" height="21" viewBox="0 0 85 21" fill="none" xmlns="http://www.w3.org/2000/svg">
<path opacity="0.75" d="M3 18L82 18" stroke="#00072D" stroke-width="5" stroke-linecap="round"/>
<path opacity="0.75" d="M14.7982 3.12L11.4442 8.058V12H10.4482V8.064L7.0282 3.12H8.1442L10.9642 7.194L13.7542 3.12H14.7982ZM17.5747 12.114C16.6507 12.114 15.9287 11.836 15.4087 11.28C14.8887 10.724 14.6287 9.88 14.6287 8.748C14.6287 7.624 14.8887 6.784 15.4087 6.228C15.9287 5.668 16.6507 5.388 17.5747 5.388C18.5067 5.388 19.2287 5.666 19.7407 6.222C20.2567 6.774 20.5147 7.616 20.5147 8.748C20.5147 9.5 20.3947 10.128 20.1547 10.632C19.9147 11.132 19.5747 11.504 19.1347 11.748C18.6947 11.992 18.1747 12.114 17.5747 12.114ZM17.5747 11.316C18.1987 11.316 18.6767 11.116 19.0087 10.716C19.3447 10.316 19.5127 9.664 19.5127 8.76C19.5127 7.844 19.3467 7.186 19.0147 6.786C18.6827 6.386 18.2027 6.186 17.5747 6.186C16.9467 6.186 16.4647 6.386 16.1287 6.786C15.7967 7.182 15.6307 7.832 15.6307 8.736C15.6307 9.652 15.7967 10.312 16.1287 10.716C16.4647 11.116 16.9467 11.316 17.5747 11.316ZM24.5137 12.108C23.8177 12.108 23.2697 11.916 22.8697 11.532C22.4737 11.148 22.2757 10.54 22.2757 9.708V5.49H23.2597V9.66C23.2597 10.22 23.3877 10.624 23.6437 10.872C23.8997 11.116 24.2617 11.238 24.7297 11.238C25.0777 11.238 25.4237 11.166 25.7677 11.022C26.1157 10.874 26.4117 10.658 26.6557 10.374V5.49H27.6397V12H26.8177L26.7457 11.28H26.6857C26.3937 11.552 26.0617 11.758 25.6897 11.898C25.3177 12.038 24.9257 12.108 24.5137 12.108ZM29.8359 5.49H30.6579L30.7419 6.36H30.8019C31.0339 6.064 31.3319 5.834 31.6959 5.67C32.0639 5.506 32.4459 5.424 32.8419 5.424C33.0459 5.424 33.2459 5.442 33.4419 5.478V6.39C33.2619 6.358 33.0459 6.342 32.7939 6.342C32.4419 6.342 32.0819 6.418 31.7139 6.57C31.3499 6.722 31.0519 6.944 30.8199 7.236V12H29.8359V5.49ZM39.2186 11.16H44.1206V12H38.2286V3.12H44.0606V3.96H39.2186V7.026H43.4606V7.866H39.2186V11.16ZM50.406 5.49H51.39L48.756 12H47.502L44.868 5.49H45.918L48.162 11.142L50.406 5.49ZM57.7925 9.066H53.3225C53.3505 9.858 53.5585 10.432 53.9465 10.788C54.3345 11.14 54.9225 11.316 55.7105 11.316C56.2465 11.316 56.8305 11.222 57.4625 11.034V11.832C56.8305 12.02 56.2085 12.114 55.5965 12.114C54.5085 12.114 53.6905 11.842 53.1425 11.298C52.5985 10.75 52.3265 9.898 52.3265 8.742C52.3265 8.01 52.4365 7.394 52.6565 6.894C52.8805 6.394 53.2005 6.018 53.6165 5.766C54.0325 5.514 54.5325 5.388 55.1165 5.388C55.9805 5.388 56.6425 5.674 57.1025 6.246C57.5625 6.814 57.7925 7.654 57.7925 8.766V9.066ZM55.1105 6.096C54.5385 6.096 54.1005 6.28 53.7965 6.648C53.4965 7.016 53.3385 7.6 53.3225 8.4H56.8565C56.8405 7.6 56.6865 7.016 56.3945 6.648C56.1025 6.28 55.6745 6.096 55.1105 6.096ZM59.5242 5.49H60.3522L60.4242 6.234H60.4902C60.7822 5.962 61.1182 5.754 61.4982 5.61C61.8782 5.462 62.2782 5.388 62.6982 5.388C63.4062 5.388 63.9582 5.584 64.3542 5.976C64.7542 6.364 64.9542 6.978 64.9542 7.818V12H63.9702V7.854C63.9702 7.29 63.8402 6.884 63.5802 6.636C63.3242 6.388 62.9522 6.264 62.4642 6.264C62.1162 6.264 61.7662 6.334 61.4142 6.474C61.0622 6.614 60.7602 6.828 60.5082 7.116V12H59.5242V5.49ZM69.921 11.268C70.149 11.268 70.439 11.232 70.791 11.16V11.988C70.419 12.072 70.057 12.114 69.705 12.114C68.973 12.114 68.415 11.93 68.031 11.562C67.647 11.19 67.455 10.624 67.455 9.864V6.3H66.171V5.49H67.455L67.623 3.12H68.439V5.49H70.689V6.3H68.439V9.702C68.439 10.262 68.561 10.664 68.805 10.908C69.049 11.148 69.421 11.268 69.921 11.268ZM73.6613 12.114C72.9413 12.114 72.2913 12.024 71.7113 11.844V11.058C72.0473 11.158 72.3713 11.23 72.6833 11.274C72.9993 11.318 73.3273 11.34 73.6673 11.34C74.2673 11.34 74.7033 11.248 74.9753 11.064C75.2513 10.88 75.3893 10.61 75.3893 10.254C75.3893 9.962 75.3093 9.74 75.1493 9.588C74.9933 9.432 74.7173 9.318 74.3213 9.246L73.3253 9.06C72.7173 8.944 72.2753 8.742 71.9993 8.454C71.7273 8.162 71.5913 7.772 71.5913 7.284C71.5913 6.908 71.6893 6.578 71.8853 6.294C72.0813 6.01 72.3813 5.788 72.7853 5.628C73.1893 5.468 73.6973 5.388 74.3093 5.388C74.9093 5.388 75.4633 5.46 75.9713 5.604V6.39C75.6913 6.31 75.4193 6.252 75.1553 6.216C74.8913 6.18 74.6153 6.162 74.3273 6.162C73.6913 6.162 73.2333 6.262 72.9533 6.462C72.6773 6.658 72.5393 6.924 72.5393 7.26C72.5393 7.524 72.6153 7.738 72.7673 7.902C72.9233 8.066 73.1913 8.186 73.5713 8.262L74.5613 8.442C75.1813 8.558 75.6313 8.756 75.9113 9.036C76.1953 9.312 76.3373 9.698 76.3373 10.194C76.3373 10.798 76.1093 11.27 75.6533 11.61C75.2013 11.946 74.5373 12.114 73.6613 12.114Z" fill="#00072D"/>
</svg>
